<?xml version="1.0" encoding="UTF-8"?>
<svg width="86.588829mm" height="140.96761mm" viewBox="0 0 86.588829 140.96761" version="1.1" xmlns="http://www.w3.org/2000/svg">
  <defs>
    <style>
      /* Light Mode: Racing Green */
      .icon-path { fill: #004225; transition: fill 0.3s; }
      
      /* Dark Mode: Pure White */
      @media (prefers-color-scheme: dark) {
        .icon-path { fill: #ffffff !important; }
      }
    </style>
  </defs>
  <g transform="translate(-4.0553493,-4.1869234)">
    <g transform="matrix(0.15806829,0,0,0.15806829,58.783452,75.793958)">
      <path class="icon-path" d="m -91.614855,2314.7424 c -16.292535,-3.7305 -26.693125,-9.0182 -34.813155,-17.6992 -12.25777,-13.1045 -13.79354,-26.9059 -4.43203,-39.8291 2.51731,-3.4751 22.20521,-22.9889 43.750878,-43.3641 33.613635,-31.7876 96.3533872,-95.9223 140.860312,-143.9921 23.899662,-25.8129 30.075238,-38.2156 30.241311,-60.7352 0.192574,-26.1131 -6.120677,-36.325 -35.190455,-56.9215 -63.580965,-45.0484 -110.814122,-84.7285 -140.456943,-117.9963 -61.816803,-69.3764 -89.769413,-129.8924 -108.605003,-235.1242 -8.09753,-45.2398 -9.84365,-64.7503 -9.89172,-110.5268 -0.0467,-44.4525 1.58946,-60.2842 10.82741,-104.7686 9.07426,-43.6962 23.94028,-86.9768 47.88128,-139.4005 26.02048,-56.9771 52.086621,-102.1519 119.402557,-206.9347 9.462987,-14.73 25.1094423,-39.5867 34.7699001,-55.23724 C 31.820704,935.08328 86.931248,847.58739 115.53973,803.11041 c 14.80404,-23.0155 31.59,-49.37871 37.30214,-58.58491 5.71215,-9.2062 11.52236,-16.95827 12.91159,-17.22682 7.98386,-1.54334 143.41172,156.83791 205.80496,240.68642 61.90757,83.1958 118.67054,177.7772 151.1867,251.9151 36.32702,82.8268 60.10506,172.212 66.32943,249.3424 2.52129,31.2429 1.1713,95.8048 -2.48631,118.9056 -9.23906,58.3523 -22.92735,106.7442 -42.06145,148.6989 -24.55615,53.8435 -51.01353,91.7511 -91.35546,130.8923 -31.81186,30.865 -51.35801,44.123 -134.46976,91.21 -66.55321,37.7057 -84.23518,51.1194 -136.5277,103.5709 -42.06014,42.1881 -65.32771,67.9863 -97.522325,108.1294 -11.075032,13.8093 -22.594374,27.8703 -25.598537,31.2468 -8.105716,9.1103 -11.452354,14.7505 -9.735009,16.4068 0.847993,0.8178 8.076275,0.8196 16.568908,0 8.28558,-0.7957 24.480124,-2.2972 35.987873,-3.3367 56.31304,-5.0867 177.12416,-28.9441 263.63211,-52.0611 45.10241,-12.0524 99.83083,-30.2925 105.85288,-35.279 5.53023,-4.5793 -1.95818,-3.7907 -27.61348,2.9079 -45.62926,11.9139 -105.9835,25.2952 -142.6828,31.6346 -46.16429,7.9744 -99.10301,15.6621 -117.32225,17.0375 l -14.91227,1.1257 0.004,-4.0064 c 0.009,-8.7933 8.89606,-36.736 16.71215,-52.5481 25.01155,-50.5986 68.6465,-81.3448 141.4629,-99.678 40.99499,-10.3215 62.23686,-12.4792 122.19139,-12.4123 58.8387,0.066 71.99998,1.3107 142.27765,13.4593 42.57819,7.3604 89.54275,17.3801 131.37961,28.0294 22.8462,5.8154 26.5943,8.7816 16.41551,12.9914 -7.24878,2.998 -48.56593,30.8143 -66.61317,44.8467 -7.82527,6.0844 -25.71854,20.7055 -39.76283,32.4913 -91.41631,76.7156 -145.79351,103.2735 -230.5647,112.6081 -58.98873,6.4957 -128.52097,-5.8153 -187.47173,-33.1925 -10.27166,-4.7703 -17.19492,-6.9504 -21.76011,-6.8524 -3.68248,0.079 -18.37055,2.838 -32.64016,6.131 -14.26962,3.293 -31.97063,6.8307 -39.33559,7.8616 -7.36496,1.031 -21.2998,3.3111 -30.96631,5.067 -9.666511,1.7558 -25.861055,3.9705 -35.987876,4.9215 -30.508405,2.8648 -27.365368,1.269 -42.251202,21.4525 -7.2787347,9.8691 -16.0513765,21.8771 -19.4947597,26.6843 -9.0342153,12.6123 -20.2110743,21.8205 -30.1420533,24.8328 -12.136018,3.6812 -41.268982,4.6104 -53.896764,1.719 z m 123.79515,-273.9172 c 43.05459,-31.0461 71.8808,-60.2565 100.66281,-102.0044 43.76942,-63.4869 75.2835,-132.7117 101.7284,-223.4596 13.30888,-45.6706 31.7812,-131.6681 38.47132,-179.1025 8.88965,-63.0294 20.052,-81.2388 49.74278,-81.1466 26.54278,0.082 62.27531,20.3323 99.33574,56.2941 8.86835,8.6055 16.99476,15.6463 18.05868,15.6463 3.16972,0 2.2348,-5.5065 -3.1534,-18.573 -17.26852,-41.8766 -44.72539,-81.5989 -79.87798,-115.5606 -35.90352,-34.6873 -63.10996,-54.8157 -103.76133,-76.7665 -12.19821,-6.5867 -22.17857,-13.0146 -22.17857,-14.2842 0,-1.349 2.60833,-2.7811 6.27695,-3.4462 23.00206,-4.1704 45.60865,-22.1912 56.36723,-44.933 18.11674,-38.2956 -1.91657,-84.3181 -42.69673,-98.0872 -8.91865,-3.0113 -13.61454,-3.5215 -27.67462,-3.0072 -15.96226,0.5839 -17.75492,1.0265 -31.25904,7.7181 -16.00649,7.9315 -24.16704,15.8696 -32.62189,31.7325 -11.06004,20.7508 -10.35875,43.3174 2.12132,68.2614 4.15479,8.3042 7.55416,15.6482 7.55416,16.3201 0,2.6588 -2.18802,1.9096 -52.72643,-18.0536 -88.23232,-34.8527 -144.59004,-71.0667 -176.443485,-113.3779 -3.985195,-5.2935 -7.908547,-9.6246 -8.718558,-9.6246 -6.038323,0 4.176858,31.9312 21.15167,66.1172 14.32606,28.8516 25.087721,43.8989 51.271436,71.6893 50.800447,53.9176 69.079297,82.8801 77.826637,123.3148 3.76365,17.3975 3.75146,57.6907 -0.0238,78.6712 -11.69036,64.9672 -38.14758,124.9735 -76.38458,173.2439 -16.778265,21.1809 -62.266215,65.4388 -84.678936,82.3891 -26.053187,19.7035 -58.492159,40.9489 -73.871579,48.381 -6.653675,3.2154 -12.606318,6.6694 -13.228098,7.6754 -2.756557,4.4602 8.854515,7.4441 41.284811,10.6096 14.430049,1.4085 45.216547,-1.7179 66.059755,-6.7083 21.091371,-5.0499 36.26231,-10.6598 73.849877,-27.3079 16.46101,-7.2909 35.20176,-15.2435 41.6461,-17.6727 36.59607,-13.7944 50.29179,-7.5793 54.38167,24.6785 4.20433,33.1604 -8.79969,81.5063 -44.9738,167.2021 -22.31874,52.8726 -36.64768,83.7052 -46.0036,98.989 -10.79862,17.6406 -7.64422,18.6973 12.48509,4.1824 z" />
      <path class="icon-path" d="m 355.77693,963.2904 c -2.47379,-2.58208 -4.4978,-5.53607 -4.4978,-6.56442 0,-5.29357 -17.76868,-28.11575 -33.89556,-43.53563 -3.45232,-3.30097 -6.27695,-6.96792 -6.27695,-8.14877 0,-1.18084 -1.67407,-3.31955 -3.72016,-4.75268 -2.04608,-1.43314 -3.15659,-2.6057 -2.46779,-2.6057 0.68879,0 0.0943,-2.23947 -1.32115,-4.9766 -1.83479,-3.54811 -1.96725,-4.70646 -0.46145,-4.03547 2.20339,0.98184 8.8324,9.08412 29.28525,35.79375 6.69715,8.74589 16.66504,21.55087 22.15087,28.45552 5.48583,6.90465 10.00204,13.11884 10.03601,13.80931 0.13848,2.81452 -4.61231,0.96434 -8.83127,-3.43931 z" />
    </g>
    <circle class="icon-path" cx="82.221176" cy="27.010813" r="0.063185617" />
  </g>
</svg>
