<?xml version="1.0" encoding="UTF-8" standalone="no"?>
<!-- Created with Inkscape (http://www.inkscape.org/) -->

<svg
   width="420mm"
   height="150mm"
   viewBox="0 0 420 150"
   version="1.1"
   id="svg1"
   xml:space="preserve"
   xmlns:xlink="http://www.w3.org/1999/xlink"
   xmlns="http://www.w3.org/2000/svg"
   xmlns:svg="http://www.w3.org/2000/svg"><defs
     id="defs1" /><g
     id="layer1"><g
       id="g1"
       transform="matrix(0.15806829,0,0,0.15806829,58.783452,75.793958)"
       style="stroke-width:6.32615"><path
         style="fill:#fefefe;stroke-width:6.32615"
         d="m -277.68021,436.43348 c -0.7276,-0.12182 -2.22535,-0.23193 -3.32833,-0.24467 -3.25676,-0.0376 -11.41616,-2.54295 -16.28247,-4.99945 -4.71809,-2.38169 -10.55058,-7.37282 -12.61131,-10.79209 -1.3382,-2.22042 -2.54153,-5.1317 -2.98409,-7.2196 -0.43963,-2.07405 -0.50122,-8.27507 -0.10356,-10.42622 0.35156,-1.90179 1.5169,-4.73537 2.72262,-6.62022 1.61054,-2.51767 4.31626,-5.35133 13.56959,-14.21125 20.48234,-19.61152 35.937,-35.28185 57.66353,-58.46826 41.3562,-44.13508 45.7311,-49.45591 48.18521,-58.6038 0.6655,-2.48073 0.71063,-3.00908 0.72321,-8.46667 0.0112,-4.85563 -0.0665,-6.1056 -0.46873,-7.5382 -1.18216,-4.21087 -2.57132,-6.58781 -5.85689,-10.02149 -2.58858,-2.70529 -4.19173,-3.99909 -16.93502,-13.66717 -20.88225,-15.84294 -28.56885,-22.02051 -38.36459,-30.83285 -4.99494,-4.49349 -21.86049,-21.25381 -25.89995,-25.73834 -22.10378,-24.53919 -38.65022,-53.9921 -49.79825,-88.64161 -8.69073,-27.011904 -14.75611,-61.011762 -15.62995,-87.6145087 -0.27803,-8.4641923 -0.27655,-34.6406973 0.002,-42.7302083 0.43031,-12.478338 2.78689,-29.830611 6.01871,-44.317709 9.27522,-41.577534 26.23312,-83.795894 51.11849,-127.264584 8.0343,-14.03396 16.29435,-27.57546 34.45688,-56.48854 6.07896,-9.67714 18.13909,-28.90573 26.80029,-42.73021 33.75312,-53.87465 47.65669,-75.90217 60.20442,-95.38229 4.07744,-6.33016 9.90212,-15.43844 12.94373,-20.24063 3.04162,-4.80219 5.9901,-9.34325 6.55219,-10.09125 1.15018,-1.53058 1.74192,-1.73021 5.14978,-1.73733 3.5748,-0.007 3.54838,-0.0217 7.90143,4.258 21.45753,21.09598 58.029436,61.68331 84.065591,93.29558 24.815635,30.13036 47.97555107,61.69242 63.25637,86.20504 20.666752,33.15242 34.843599,60.51776 47.460592,91.61243 17.504944,43.14107 28.508232,87.786709 31.45892,127.643993 1.5376,20.769579 1.026698,50.490469 -1.200722,69.85 -3.100821,26.950663 -11.075453,56.89687 -22.018176,82.682297 -2.526203,5.95274 -10.03244,21.05609 -13.346814,26.8552 -6.483792,11.34461 -15.672664,24.62381 -23.617974,34.13125 -7.217519,8.63657 -20.067253,21.05962 -28.8352533,27.87776 -15.7817527,12.27215 -29.8206567,21.24331 -64.0291697,40.91599 -23.619702,13.58325 -30.479722,18.04084 -42.262354,27.46176 -7.71215,6.16631 -13.57917,11.6501 -24.11879,22.54333 -20.14185,20.81763 -36.62857,39.48638 -52.80602,59.79492 -3.18779,4.00182 -9.04774,11.28955 -13.02212,16.19495 -3.97438,4.9054 -7.22614,9.00083 -7.22614,9.10095 0,0.73371 27.82042,-2.27732 43.25938,-4.68202 9.66011,-1.50461 30.13774,-5.43973 46.65479,-8.9655 6.56855,-1.40213 24.70112,-5.52934 25.047294,-5.70108 0.420725,-0.20873 -1.662774,0.054 -8.466667,1.06752 -19.171517,2.85591 -37.474167,4.87986 -45.019197,4.97831 l -3.47961,0.0454 -1.1506,-0.80519 c -1.69174,-1.18388 -1.94613,-2.13706 -1.57135,-5.88782 0.34256,-3.42824 1.48977,-9.42278 2.79523,-14.60595 2.17411,-8.63206 6.2947,-18.90026 10.67071,-26.59063 6.2437,-10.97262 17.98848,-23.21006 29.949608,-31.20591 17.442567,-11.66011 40.708871,-20.2155 64.02917,-23.54455 31.6207545,-4.51396 58.807838,-4.66421 94.85313,-0.52421 16.099928,1.84917 37.799666,5.70556 63.896882,11.35552 24.87677,5.38574 50.16065,12.07416 53.61579,14.18316 0.93593,0.57128 1.19895,1.44815 1.22124,4.07141 0.02,2.35556 -0.32504,3.30579 -1.53574,4.22922 -0.57827,0.44107 -3.76649,2.52743 -7.08492,4.63636 -9.28779,5.90258 -18.62306,12.73207 -31.15103,22.78944 -6.40589,5.14261 -12.0852,10.09794 -21.15076,18.45457 -18.5683,17.11625 -24.449899,22.10551 -34.683478,29.42139 -10.867115,7.76879 -20.30712,13.6925 -28.662672,17.98615 -21.536497,11.06692 -42.842886,17.01241 -67.358024,18.79607 -6.453898,0.46957 -24.783266,0.39385 -31.953654,-0.132 -16.843269,-1.23521 -32.05775,-4.36687 -49.538017,-10.19661 -9.649535,-3.21816 -17.591795,-6.61422 -25.658555,-10.97147 l -4.16781,-2.25122 -7.51025,1.84885 c -30.06036,7.4002 -45.39449,10.12662 -72.0686,12.81388 -5.23875,0.52777 -9.87783,1.04692 -10.30906,1.15366 -0.57096,0.14133 -1.42296,0.98122 -3.13475,3.09019 -2.90566,3.57984 -9.78651,12.75791 -13.27939,17.71277 -9.67516,13.72486 -12.87596,16.78784 -20.85574,19.95775 -3.04762,1.21064 -4.83385,1.62764 -8.11585,1.89467 -4.26689,0.34716 -16.00545,0.50965 -17.5948,0.24356 z m 11.1125,-19.61116 c 4.27732,-0.52417 9.61599,-2.46492 11.87569,-4.31713 0.70776,-0.58013 0.74131,-0.68833 0.46194,-1.48974 -0.72242,-2.07234 -3.39333,-4.20625 -7.17825,-5.73502 -3.31082,-1.33727 -4.49602,-1.52726 -9.39271,-1.50565 -4.86839,0.0215 -6.54708,0.30487 -11.77396,1.98761 -2.76087,0.88884 -6.87917,2.79878 -6.87917,3.19036 0,0.55517 2.60777,2.98215 4.2572,3.96206 5.68059,3.37478 12.05906,4.71267 18.62926,3.90751 z m 27.45432,-24.51138 c 4.61659,-6.37014 20.75005,-26.75988 42.13222,-53.2474 22.0502,-27.31503 40.81758,-48.39606 61.49545,-69.0766 13.62697,-13.62874 19.74252,-19.13683 28.72636,-25.87299 9.356832,-7.01583 15.991655,-11.1401 40.069277,-24.90742 25.10496,-14.35475 36.878024,-21.63977 49.175478,-30.42913 C -4.6269321,179.56619 -0.64863627,176.37305 6.0512401,169.8625 19.823669,156.47926 31.546177,141.01727 42.659629,121.57604 51.865974,105.47099 59.852366,86.17039 65.722823,65.839539 71.859113,44.588045 75.573675,20.526614 76.724358,-5.4239604 78.072296,-35.82309 74.161608,-69.581953 65.062102,-106.09792 c -7.358846,-29.53077 -20.225547,-64.43706 -34.647784,-93.99656 -18.440184,-37.7946 -47.314985,-81.69252 -84.883555,-129.04719 -10.798539,-13.61141 -42.03676,-49.77686 -58.619523,-67.86563 -6.51898,-7.11101 -24.26095,-26.19375 -24.35336,-26.19375 -0.0452,0 -0.55309,0.74414 -1.12876,1.65365 -0.57566,0.9095 -3.50579,5.49506 -6.5114,10.19013 -12.68215,19.81083 -50.01586,79.02481 -73.56178,116.67435 -8.35112,13.35331 -18.98689,30.35094 -23.63502,37.7725 -22.01358,35.1485 -29.6248,48.05472 -38.33429,65.00281 -10.94167,21.29176 -18.03492,37.38368 -25.05638,56.84352 -9.36244,25.94781 -14.24783,45.539464 -17.77105,71.266459 -2.07174,15.128161 -2.12907,16.037807 -2.12822,33.76742 8.4e-4,17.338383 0.0683,18.643592 1.74318,33.7343757 1.67232,15.0676613 4.4049,32.1094293 7.14858,44.5822923 6.37578,28.984526 18.42483,58.528843 33.3741,81.833423 1.38344,2.15666 1.77393,2.27943 1.78244,0.5604 0.007,-1.36976 1.48329,-3.93834 3.08399,-5.36502 0.80086,-0.71379 3.2037,-2.28262 5.33965,-3.48628 19.07137,-10.74723 22.34147,-12.81713 34.17833,-21.63412 19.2934,-14.371198 35.92826,-29.786923 48.59032,-45.029236 6.12809,-7.376866 16.37486,-22.231481 20.98872,-30.427084 2.12213,-3.769545 7.9454,-15.341474 9.38669,-18.6531253 8.37449,-19.2420617 14.02974,-39.6252167 16.5535,-59.6635417 1.1426,-9.072129 0.95886,-23.203488 -0.39735,-30.559376 -2.6793,-14.532181 -8.25186,-27.328147 -17.37222,-39.890817 -4.34042,-5.97863 -6.18966,-8.06557 -21.27187,-24.00606 -13.991,-14.78718 -16.61294,-17.82232 -21.87643,-25.32403 -10.74572,-15.31518 -19.14759,-34.36265 -22.9359,-51.99691 -0.64505,-3.00267 -1.18858,-9.79869 -0.93665,-11.71135 0.35512,-2.69601 2.09584,-4.90363 4.86954,-6.17563 1.24425,-0.57061 1.84934,-0.67289 3.98082,-0.67289 4.27833,0 5.56511,0.87884 10.4149,7.1131 11.68813,15.02476 26.24531,27.44644 44.08927,37.62147 12.8563,7.33096 29.78524,15.65949 45.24375,22.25858 6.72537,2.87099 14.66355,6.11023 14.7535,6.02028 0.0445,-0.0445 -0.15997,-0.95995 -0.45434,-2.03436 -1.34797,-4.91982 -1.7594,-13.44802 -0.93024,-19.28248 1.46226,-10.2893 6.296846,-20.25923 13.435531,-27.7069 6.383881,-6.66019 16.795159,-12.38357 26.376805,-14.5001 2.621149,-0.579 13.645461,-0.84287 17.65864,-0.42266 8.900064,0.93189 20.054922,5.93209 26.624337,11.93445 5.022052,4.58856 8.49132,9.11358 11.369143,14.82893 2.2515881,4.47165 3.9480123,9.41849 4.711206,13.73806 0.6423927,3.63585 0.7850303,12.49774 0.2599431,16.14994 -1.2026243,8.36475 -5.5508031,18.27553 -10.9784991,25.02324 -3.263105,4.05669 -8.682682,8.68672 -13.65825,11.66847 -1.165918,0.69871 -2.116352,1.33117 -2.112075,1.40548 0.0043,0.0743 1.750641,1.14713 3.880808,2.38406 11.379023,6.60748 26.2565248,17.41542 37.9879126,27.59678 7.8550764,6.81722 21.8863694,20.879311 27.3764574,27.436556 12.788461,15.274268 24.372018,34.10403 31.512178,51.224924 3.325481,7.973941 4.618802,12.827317 4.645906,17.434451 0.0173,2.94154 -0.03601,3.293878 -0.725108,4.791708 -0.932201,2.0262507 -2.739301,3.8239104 -4.805716,4.7806111 -1.3463,0.6233044 -1.929201,0.7342951 -3.836459,0.7305032 C 59.989486,-3.727076 59.478865,-4.075641 50.520732,-12.580152 36.712915,-25.688767 30.478185,-30.80066 21.431268,-36.430781 6.697785,-45.599794 -3.3581937,-48.399418 -9.7736976,-45.118367 c -1.7396474,0.8897 -4.0766904,3.645052 -5.3979944,6.364186 -3.114686,6.409762 -4.759885,13.651484 -7.451858,32.801054 -2.029753,14.4388188 -3.484459,22.434708 -8.496024,46.698959 -3.784922,18.325271 -5.800829,26.96791 -9.658308,41.407292 -10.419413,39.002116 -20.66748,66.822136 -35.62871,96.719836 -7.686483,15.36025 -14.36434,26.94589 -22.562069,39.14371 -16.908529,25.15906 -33.303549,42.78682 -52.769869,56.73766 -5.33961,3.82672 -10.00475,6.84531 -12.69975,8.21742 -5.13077,2.61223 -9.62205,2.42688 -12.07802,-0.49847 l -0.86945,-1.03561 -1.12649,1.97646 c -2.64533,4.64132 -6.0136,8.89215 -15.67784,19.78574 -20.96998,23.6375 -48.3271,52.55835 -70.39325,74.41693 l -8.06979,7.99389 3.27333,0.01 c 5.65191,0.0168 11.72508,1.28458 16.96729,3.5418 2.42793,1.04543 5.87535,3.31562 8.28088,5.45311 0.98922,0.879 1.88664,1.59818 1.99425,1.59818 0.10762,0 1.46841,-1.75617 3.02398,-3.9026 z m 220.592572,-9.07461 c 32.675027,-2.06824 60.609675,-12.43688 88.443271,-32.82791 10.271471,-7.52494 17.486208,-13.60066 32.459417,-27.33493 13.18489,-12.09392 19.98427,-17.75821 34.8988,-29.07274 2.8167,-2.13682 5.03862,-3.88512 4.93759,-3.88512 -0.10103,0 -5.79888,-1.24646 -12.6619,-2.76991 -33.709533,-7.48283 -58.5635,-12.11147 -76.696506,-14.28345 -20.327674,-2.43485 -47.6476086,-2.92263 -67.544213,-1.20595 -16.573364,1.42996 -29.181521,3.9431 -43.127086,8.59637 -23.905054,7.97649 -41.132615,19.5374 -52.446405,35.19523 -2.90802,4.02457 -6.43002,10.45846 -8.39979,15.34447 -0.98969,2.45493 -2.5699,7.5818 -2.39177,7.75993 0.12524,0.12523 16.06818,-1.91183 27.783797,-3.54999 26.652797,-3.72679 56.052186,-9.73918 103.848964,-21.23787 6.039115,-1.45286 12.170834,-2.9042 13.626042,-3.22521 3.188478,-0.70334 9.452247,-1.00233 11.182527,-0.53378 1.709127,0.46283 3.748273,2.27316 4.75862,4.22466 0.778391,1.50347 0.859345,1.87814 0.854085,3.95288 -0.0074,2.91129 -0.36787,3.71226 -3.031234,6.73515 -10.352562,11.75005 -26.840131,19.67462 -64.431709,30.96841 -16.442916,4.94001 -26.988407,7.70963 -50.535419,13.27239 -7.203282,1.7017 -13.125867,3.12124 -13.1613,3.15452 -0.117153,0.11003 10.036052,3.28449 14.7488,4.6113 11.328192,3.18928 22.033135,5.15171 32.543751,5.9659 5.695204,0.44118 18.465611,0.51759 24.341668,0.14565 z m -63.433857,-31.11885 c -0.181901,-0.0734 -0.479558,-0.0734 -0.661459,0 -0.181901,0.0734 -0.03307,0.13345 0.33073,0.13345 0.363802,0 0.51263,-0.06 0.330729,-0.13345 z M -167.34967,250.03844 c 4.92307,-11.20999 11.44186,-26.34734 14.45311,-33.56172 13.78589,-33.02835 22.55939,-60.29234 24.96203,-77.57047 1.29023,-9.27844 1.2228,-14.54619 -0.25813,-20.16692 -1.62934,-6.18402 -3.75847,-7.71703 -9.13481,-6.57723 -3.66778,0.77757 -9.09478,3.08455 -27.90481,11.86215 -16.27316,7.59377 -22.53591,10.29925 -30.2948,13.08721 -18.83927,6.7694 -35.14194,9.38073 -53.42978,8.55827 -9.98129,-0.44889 -18.895,-1.66477 -24.17078,-3.29703 -1.13412,-0.35088 -1.95922,-0.50047 -1.83356,-0.33242 6.32223,8.45536 16.66045,19.84206 26.90349,29.63197 14.41247,13.77488 20.14237,18.54508 43.27022,36.02287 15.0653,11.38491 17.4871,13.34161 21.43125,17.31551 8.33623,8.39911 11.60272,16.21252 12.31775,29.464 0.10046,1.86177 0.21407,3.35005 0.25246,3.30729 0.0384,-0.0428 1.58476,-3.52733 3.43636,-7.74348 z"
         id="path2" /><path
         style="fill:#fcfcfc;stroke-width:6.32615"
         d="m -158.17288,254.61464 c 0.0713,-0.74308 0.19983,-0.89246 0.83016,-0.9647 0.69922,-0.0801 0.74054,-0.0306 0.66145,0.79375 -0.0713,0.74309 -0.19983,0.89246 -0.83016,0.9647 -0.69922,0.0801 -0.74054,0.0306 -0.66145,-0.79375 z m -48.99586,-125.45609 c 0,-0.49003 0.21388,-0.68366 1.02288,-0.92605 1.61381,-0.48351 2.15212,-0.40519 2.15212,0.31312 0,0.49003 -0.21389,0.68366 -1.02289,0.92604 -1.61381,0.48351 -2.15211,0.40519 -2.15211,-0.31311 z m 78.6474,-25.36793 c -0.36673,-0.17687 -0.59532,-0.52557 -0.59532,-0.90814 0,-0.54529 0.12561,-0.62102 1.03003,-0.62102 1.05706,0 1.35122,0.29271 1.35122,1.34455 0,0.57642 -0.8017,0.65929 -1.78593,0.18461 z M 58.26127,-18.706044 c -0.174625,-0.174625 -0.3175,-0.591344 -0.3175,-0.926041 0,-0.457185 0.148067,-0.606449 0.595312,-0.600128 0.821131,0.01161 1.521355,0.599605 1.521355,1.277525 0,0.443674 -0.16026,0.566144 -0.740834,0.566144 -0.407458,0 -0.883708,-0.142875 -1.058333,-0.3175 z M 13.670156,-51.902433 c -0.09701,-0.09701 -0.176389,-0.461745 -0.176389,-0.810514 0,-0.556041 0.105885,-0.623915 0.859896,-0.551215 0.716514,0.06909 0.873856,0.204233 0.943616,0.810514 0.0743,0.645718 -0.0026,0.727604 -0.683507,0.727604 -0.421975,0 -0.846602,-0.07937 -0.943616,-0.176389 z M -132.02707,-74.744794 c 0,-0.670278 0.10289,-0.79375 0.66145,-0.79375 0.55857,0 0.66146,0.123472 0.66146,0.79375 0,0.670277 -0.10289,0.79375 -0.66146,0.79375 -0.55856,0 -0.66145,-0.123473 -0.66145,-0.79375 z m 154.941854,-5.710182 c -0.343391,-0.894862 -0.175064,-1.433568 0.447942,-1.433568 0.334698,0 0.751417,0.142875 0.926042,0.3175 0.174625,0.174625 0.3175,0.591343 0.3175,0.926041 0,0.494768 -0.143109,0.608542 -0.765443,0.608542 -0.453907,0 -0.830806,-0.170335 -0.926041,-0.418515 z M -139.14494,-104.15303 c -0.46618,-1.33727 -0.37568,-1.8126 0.34511,-1.8126 0.47501,0 0.70895,0.2105 0.92604,0.83323 0.46618,1.33728 0.37568,1.81261 -0.34511,1.81261 -0.47501,0 -0.70896,-0.21051 -0.92604,-0.83324 z m -4.25922,-9.88239 c 0,-0.52917 0.13229,-0.66146 0.66146,-0.66146 0.52917,0 0.66146,0.13229 0.66146,0.66146 0,0.52917 -0.13229,0.66146 -0.66146,0.66146 -0.52917,0 -0.66146,-0.13229 -0.66146,-0.66146 z m 112.630947,-42.12181 c -0.340179,-0.0882 -0.454867,-0.32777 -0.396875,-0.82921 0.154135,-1.33275 2.065936,-0.90106 2.065936,0.4665 0,0.55324 -0.507819,0.6636 -1.669061,0.36271 z M -175.08455,-192.0378 c -1.02025,-0.6896 -1.20289,-1.7695 -0.29928,-1.7695 0.96495,0 2.34634,1.02523 2.34634,1.74138 0,0.8256 -0.84992,0.83727 -2.04706,0.0281 z m -7.27951,-4.57437 c -2.36263,-1.43604 -2.84427,-1.83776 -2.84427,-2.37237 0,-1.05173 0.95537,-0.80127 3.9804,1.04352 2.25373,1.37441 2.782,1.81576 2.8502,2.38125 0.13538,1.12251 -0.82534,0.86888 -3.98633,-1.0524 z"
         id="path1" /></g><text
       xml:space="preserve"
       style="font-style:normal;font-variant:normal;font-weight:bold;font-stretch:normal;font-size:25.4px;line-height:1.15;font-family:Poppins;-inkscape-font-specification:'Poppins Bold';writing-mode:lr-tb;direction:ltr;fill:#ffffff;fill-opacity:0.999999;stroke:#00e5c4;stroke-width:7;stroke-miterlimit:1.7;stroke-opacity:0.0313725"
       x="106.52009"
       y="38.633667"
       id="text7"
       transform="scale(1.024147,0.97642233)"><tspan
         id="tspan7"
         style="font-size:25.4px;line-height:1.15;stroke:none;stroke-width:7"
         x="106.52009"
         y="38.633667">Forest </tspan><tspan
         style="font-size:25.4px;line-height:1.15;stroke:none"
         x="106.52009"
         y="67.843666"
         id="tspan8">Governance</tspan><tspan
         style="font-size:25.4px;line-height:1.15;stroke:none;stroke-width:7"
         x="106.52009"
         y="97.053665"
         id="tspan9">Lab</tspan></text><text
       xml:space="preserve"
       style="font-style:normal;font-variant:normal;font-weight:bold;font-stretch:normal;font-size:12.3472px;font-family:Poppins;-inkscape-font-specification:'Poppins Bold';writing-mode:lr-tb;direction:ltr;fill:#ffffff;fill-opacity:0.999999;stroke:#00e5c4;stroke-width:7;stroke-miterlimit:1.7;stroke-opacity:0.0313725"
       x="110.11994"
       y="128.98959"
       id="text11"><tspan
         id="tspan11"
         style="font-style:normal;font-variant:normal;font-weight:normal;font-stretch:normal;font-size:12.3472px;font-family:Poppins;-inkscape-font-specification:Poppins;stroke:none;stroke-width:7"
         x="110.11994"
         y="128.98959">Technical Writing · Research · Advisory · Training</tspan></text><rect
       style="fill:#ffffff;fill-opacity:0.999999;stroke:none;stroke-width:7.00001;stroke-miterlimit:1.7;stroke-opacity:0.0313725"
       id="rect12"
       width="292.97897"
       height="1.00899"
       x="110.08488"
       y="106.87706"
       ry="0.12276509" /></g></svg>
