<?xml version="1.0" encoding="UTF-8" standalone="no"?>
<!-- Created with Inkscape (http://www.inkscape.org/) -->

<svg
   width="86.588829mm"
   height="140.96761mm"
   viewBox="0 0 86.588829 140.96761"
   version="1.1"
   id="svg1"
   xml:space="preserve"
   xmlns:xlink="http://www.w3.org/1999/xlink"
   xmlns="http://www.w3.org/2000/svg"
   xmlns:svg="http://www.w3.org/2000/svg">
  <defs id="defs1">
    <style id="dark-mode-inversion">
      /* This targets the specific colors used in your design for a perfect inversion */
      @media (prefers-color-scheme: dark) {
        /* Turn the British Racing Green parts White */
        [style*="#004225"] { fill: #ffffff !important; stroke: #ffffff !important; }
        /* Turn the White Person/Detail parts Green */
        [style*="#fcfcfc"] { fill: #004225 !important; }
      }
    </style>
  </defs>
  <g
     id="layer1"
     transform="translate(-4.0553493,-4.1869234)">
    <g
       id="g1"
       transform="matrix(0.15806829,0,0,0.15806829,58.783452,75.793958)"
       style="stroke-width:6.32615">
      <path
         style="fill:#fcfcfc;stroke-width:6.32615"
         d="m -149.81686,293.05234 c 0.0713,-0.74308 0.19983,-0.89246 0.83016,-0.9647 0.69922,-0.0801 0.74054,-0.0306 0.66145,0.79375 -0.0713,0.74309 -0.19983,0.89246 -0.83016,0.9647 -0.69922,0.0801 -0.74054,0.0306 -0.66145,-0.79375 z m -48.99586,-125.45609 c 0,-0.49003 0.21388,-0.68366 1.02288,-0.92605 1.61381,-0.48351 2.15212,-0.40519 2.15212,0.31312 0,0.49003 -0.21389,0.68366 -1.02289,0.92604 -1.61381,0.48351 -2.15211,0.40519 -2.15211,-0.31311 z m 78.6474,-25.36793 c -0.36673,-0.17687 -0.59532,-0.52557 -0.59532,-0.90814 0,-0.54529 0.12561,-0.62102 1.03003,-0.62102 1.05706,0 1.35122,0.29271 1.35122,1.34455 0,0.57642 -0.8017,0.65929 -1.78593,0.18461 z M 66.617292,19.731658 c -0.174625,-0.174625 -0.3175,-0.591344 -0.3175,-0.926041 0,-0.457185 0.148067,-0.606449 0.595312,-0.600128 0.821131,0.01161 1.521355,0.599605 1.521355,1.277525 0,0.443674 -0.16026,0.566144 -0.740834,0.566144 -0.407458,0 -0.883708,-0.142875 -1.058333,-0.3175 z M 22.026178,-13.464731 c -0.09701,-0.09701 -0.176389,-0.461745 -0.176389,-0.810514 0,-0.556041 0.105885,-0.623915 0.859896,-0.551215 0.716514,0.06909 0.873856,0.204233 0.943616,0.810514 0.0743,0.645718 -0.0026,0.727604 -0.683507,0.727604 -0.421975,0 -0.846602,-0.07937 -0.943616,-0.176389 z M -123.67105,-36.307092 c 0,-0.670278 0.10289,-0.79375 0.66145,-0.79375 0.55857,0 0.66146,0.123472 0.66146,0.79375 0,0.670277 -0.10289,0.79375 -0.66146,0.79375 -0.55856,0 -0.66145,-0.123473 -0.66145,-0.79375 z m 154.941856,-5.710182 c -0.343391,-0.894862 -0.175064,-1.433568 0.447942,-1.433568 0.334698,0 0.751417,0.142875 0.926042,0.3175 0.174625,0.174625 0.3175,0.591343 0.3175,0.926041 0,0.494768 -0.143109,0.608542 -0.765443,0.608542 -0.453907,0 -0.830806,-0.170335 -0.926041,-0.418515 z M -130.78892,-65.715328 c -0.46618,-1.33727 -0.37568,-1.8126 0.34511,-1.8126 0.47501,0 0.70895,0.2105 0.92604,0.83323 0.46618,1.33728 0.37568,1.81261 -0.34511,1.81261 -0.47501,0 -0.70896,-0.21051 -0.92604,-0.83324 z m -4.25922,-9.88239 c 0,-0.52917 0.13229,-0.66146 0.66146,-0.66146 0.52917,0 0.66146,0.13229 0.66146,0.66146 0,0.52917 -0.13229,0.66146 -0.66146,0.66146 -0.52917,0 -0.66146,-0.13229 -0.66146,-0.66146 z m 112.630949,-42.121812 c -0.340179,-0.0882 -0.454867,-0.32777 -0.396875,-0.82921 0.154135,-1.33275 2.065936,-0.90106 2.065936,0.4665 0,0.55324 -0.507819,0.6636 -1.669061,0.36271 z M -166.72853,-153.6001 c -1.02025,-0.6896 -1.20289,-1.7695 -0.29928,-1.7695 0.96495,0 2.34634,1.02523 2.34634,1.74138 0,0.8256 -0.84992,0.83727 -2.04706,0.0281 z m -7.27951,-4.57437 c -2.36263,-1.43604 -2.84427,-1.83776 -2.84427,-2.37237 0,-1.05173 0.95537,-0.80127 3.9804,1.04352 2.25373,1.37441 2.782,1.81576 2.8502,2.38125 0.13538,1.12251 -0.82534,0.86888 -3.98633,-1.0524 z"
         id="path1" /><g
         id="g3"
         transform="matrix(0.55636063,0,0,0.55636063,-225.20665,-853.61289)"
         style="stroke-width:11.3706"><path
           style="fill:#9ba6a3;stroke-width:11.3706"
           d="m -94.42628,2316.1649 c -21.86402,-5.2973 -39.12532,-18.2639 -43.03099,-32.3247 -5.11618,-18.4188 -1.16281,-24.282 47.087938,-69.8363 32.911284,-31.0721 111.680023,-111.5221 145.697262,-148.8071 11.71188,-12.8369 21.239562,-27.3836 23.9803,-36.6127 3.220083,-10.8432 3.187502,-32.1008 -0.06332,-41.3146 -3.810449,-10.8 -9.64546,-17.406 -25.499173,-28.8688 -68.950497,-49.8533 -98.138408,-73.5994 -130.973402,-106.5545 -63.400685,-63.6325 -97.562525,-125.8051 -117.761495,-214.3192 -4.06347,-17.8066 -12.49665,-66.4991 -14.78485,-85.3666 -2.83228,-23.3538 -2.86726,-101.5955 -0.0543,-121.3545 16.35125,-114.8537 56.27289,-206.9979 159.845224,-368.943 15.65271,-24.4745 37.118962,-58.4339 47.7027827,-75.4654 C 57.401553,890.35758 71.22459,868.31365 93.235134,834.07672 114.27295,801.35287 141.22324,759.04395 157.3805,733.37574 c 2.70112,-4.29113 5.95733,-8.20353 7.23604,-8.69421 3.6305,-1.39316 9.01434,3.72372 38.20587,36.31138 146.86066,163.9464 238.03984,289.28199 299.14173,411.20249 21.69934,43.298 29.77925,61.7512 44.35868,101.308 34.67056,94.0679 50.92572,190.3568 46.07299,272.9176 -3.42125,58.2066 -16.7997,119.8903 -37.11179,171.1103 -8.19823,20.673 -27.62203,58.8509 -39.52266,77.6825 -16.39908,25.9501 -30.05109,42.7313 -55.63828,68.3915 -34.77411,34.8733 -55.63797,49.2855 -141.48412,97.7334 -39.07744,22.0536 -68.62929,41.5622 -89.55122,59.117 -35.09439,29.4463 -104.65634,103.6004 -147.17377,156.8894 -9.548894,11.968 -20.262595,24.9445 -23.808226,28.8366 -10.894146,11.9586 -12.171976,11.6241 30.378201,7.9519 65.529775,-5.6553 186.512755,-29.1203 280.370655,-54.3788 32.19216,-8.6633 86.4303,-26.1673 90.55516,-29.2243 3.75071,-2.7797 4.36753,-2.903 -32.65053,6.5303 -76.58929,19.5172 -169.00086,36.6583 -234.4963,43.4958 -21.65235,2.2605 -24.30879,2.122 -25.63601,-1.3367 -1.30689,-3.4057 8.10492,-37.9036 13.70416,-50.2311 16.65054,-36.6582 47.81492,-67.7113 86.82882,-86.5188 26.92391,-12.9792 72.01107,-25.4838 108.39012,-30.0612 41.12702,-5.1747 107.44805,-4.7623 154.83156,0.9629 26.67466,3.2231 89.84842,14.2331 125.5391,21.8793 37.61494,8.0584 87.41589,20.6624 89.96969,22.7703 4.10929,3.3917 1.92235,6.1398 -10.04313,12.6203 -23.45655,12.704 -61.62702,40.7302 -104.19745,76.5056 -47.68378,40.0726 -78.40935,61.3486 -113.32982,78.4757 -36.78726,18.0426 -66.14396,26.5768 -110.0798,32.001 -61.26176,7.5632 -130.97514,-4.092 -193.60128,-32.3678 -18.10913,-8.1763 -22.05498,-8.4018 -45.80992,-2.618 -28.95981,7.0512 -123.952332,22.219 -140.799135,22.482 -1.008373,0.016 -15.802132,19.2375 -32.8628851,42.6994 -14.1242699,19.4236 -23.2060619,25.9954 -40.4408219,29.2639 -12.436231,2.3585 -37.565175,1.8889 -49.152408,-0.9185 z m 48.606081,-25.0352 c 5.071403,-1.5061 9.964446,-4.307 11.963302,-6.8481 3.001998,-3.8164 3.141192,-4.8941 1.238283,-9.5871 -4.979537,-12.2808 -29.900756,-17.9864 -53.020185,-12.1389 -13.64907,3.4523 -19.207471,7.3726 -19.207471,13.5469 0,13.145 35.193344,22.1047 59.026071,15.0272 z"
           id="path10-detail" /><path
           style="fill:#798884;stroke-width:11.3706"
           d="m -94.26025,2314.6347 c -26.95135,-6.8376 -43.30241,-22.3794 -43.18009,-41.043 0.0636,-9.7095 6.74449,-19.1408 27.25918,-38.4816 38.255497,-36.0665 86.763433,-84.4889 125.777839,-125.5561 48.848883,-51.4192 54.970552,-58.5609 61.582948,-71.8438 4.661311,-9.3636 5.430765,-12.8133 5.973554,-26.7817 1.125264,-28.9579 -3.686351,-36.2239 -42.387124,-64.0084 -74.922941,-53.7896 -116.039264,-90.1589 -150.854477,-133.4378 -41.8932,-52.0777 -66.95821,-105.0772 -83.21434,-175.9553 -4.04476,-17.6355 -12.49625,-66.3924 -14.7974,-85.3666 -2.90564,-23.9587 -2.86654,-101.5937 0.0615,-122.1914 11.16758,-78.5588 34.37606,-146.5154 79.92522,-234.0285 20.18599,-38.7832 46.49625,-82.4292 95.740879,-158.8243 10.206773,-15.8341 28.6600627,-45.21029 41.0073106,-65.28032 12.3472474,-20.07002 29.8192904,-48.16609 38.8267614,-62.4357 9.00747,-14.26961 21.600679,-34.23032 27.984907,-44.35714 6.384229,-10.12682 16.26049,-25.61825 21.947247,-34.42539 18.333875,-28.39387 50.525535,-79.05207 58.156645,-91.51784 5.45383,-8.90909 8.36522,-12.12492 10.98661,-12.13545 2.50972,-0.0101 11.23718,8.54114 29.45443,28.85966 103.09937,114.99139 168.58995,197.32686 230.66562,289.99528 40.1476,59.9336 87.2643,147.7859 108.17494,201.6995 42.94753,110.7312 61.04169,207.3571 55.87528,298.3836 -4.18315,73.7025 -21.93091,142.7007 -52.66784,204.7573 -31.12478,62.8397 -68.35993,108.938 -119.01915,147.3495 -20.81683,15.784 -29.46314,21.1137 -88.45502,54.5255 -67.12129,38.016 -87.08338,51.9041 -124.89675,86.8933 -37.82097,34.9963 -84.87005,86.6817 -131.427192,144.3784 -11.03925,13.6806 -21.527391,26.6616 -23.306979,28.8466 -1.779588,2.1851 -2.721093,4.4874 -2.092232,5.1163 0.62886,0.6288 16.680491,-0.1459 35.670291,-1.7217 99.278422,-8.2381 288.598812,-50.0137 370.127292,-81.6727 9.43635,-3.6643 17.15701,-7.3585 17.15701,-8.2093 0,-2.3822 -2.06834,-2.0211 -29.13701,5.0875 -67.19225,17.6455 -127.36947,29.9523 -201.01801,41.1099 -32.49111,4.9223 -69.70117,9.0931 -71.55729,8.0206 -2.25486,-1.3028 -1.32076,-9.4584 2.87859,-25.1328 23.80707,-88.8618 107.30973,-137.8296 246.10729,-144.3229 32.97999,-1.5429 78.27214,0.1297 111.31134,4.1107 62.69139,7.5537 206.83833,37.8411 213.95157,44.9544 2.13297,2.133 1.3425,3.0263 -6.34241,7.1679 -21.69296,11.691 -72.92725,49.1286 -103.83017,75.8702 -92.76494,80.2732 -161.61973,111.3772 -254.42591,114.9326 -53.15662,2.0364 -123.67165,-13.2505 -170.43923,-36.9494 -11.04676,-5.5979 -17.8318,-5.494 -43.81417,0.6707 -11.50775,2.7304 -28.45553,6.1686 -37.66173,7.6404 -9.2062,1.4718 -25.02413,4.1182 -35.150948,5.8808 -10.126821,1.7627 -28.957686,4.3386 -41.846367,5.7244 l -23.433966,2.5195 -5.596725,6.2831 c -3.078198,3.4557 -10.183553,12.6855 -15.7896772,20.5108 -21.5321578,30.0555 -25.8343688,34.7029 -37.3937368,40.3935 -10.231659,5.0371 -12.134201,5.3854 -32.121972,5.8808 -14.565683,0.3611 -24.23333,-0.2312 -30.746388,-1.8836 z"
           id="path9" /><path
           style="fill:#004225;fill-opacity:1;stroke-width:11.3706"
           d="m -91.614855,2314.7424 c -16.292535,-3.7305 -26.693125,-9.0182 -34.813155,-17.6992 -12.25777,-13.1045 -13.79354,-26.9059 -4.43203,-39.8291 2.51731,-3.4751 22.20521,-22.9889 43.750878,-43.3641 33.613635,-31.7876 96.3533872,-95.9223 140.860312,-143.9921 23.899662,-25.8129 30.075238,-38.2156 30.241311,-60.7352 0.192574,-26.1131 -6.120677,-36.325 -35.190455,-56.9215 -63.580965,-45.0484 -110.814122,-84.7285 -140.456943,-117.9963 -61.816803,-69.3764 -89.769413,-129.8924 -108.605003,-235.1242 -8.09753,-45.2398 -9.84365,-64.7503 -9.89172,-110.5268 -0.0467,-44.4525 1.58946,-60.2842 10.82741,-104.7686 9.07426,-43.6962 23.94028,-86.9768 47.88128,-139.4005 26.02048,-56.9771 52.086621,-102.1519 119.402557,-206.9347 9.462987,-14.73 25.1094423,-39.5867 34.7699001,-55.23724 C 31.820704,935.08328 86.931248,847.58739 115.53973,803.11041 c 14.80404,-23.0155 31.59,-49.37871 37.30214,-58.58491 5.71215,-9.2062 11.52236,-16.95827 12.91159,-17.22682 7.98386,-1.54334 143.41172,156.83791 205.80496,240.68642 61.90757,83.1958 118.67054,177.7772 151.1867,251.9151 36.32702,82.8268 60.10506,172.212 66.32943,249.3424 2.52129,31.2429 1.1713,95.8048 -2.48631,118.9056 -9.23906,58.3523 -22.92735,106.7442 -42.06145,148.6989 -24.55615,53.8435 -51.01353,91.7511 -91.35546,130.8923 -31.81186,30.865 -51.35801,44.123 -134.46976,91.21 -66.55321,37.7057 -84.23518,51.1194 -136.5277,103.5709 -42.06014,42.1881 -65.32771,67.9863 -97.522325,108.1294 -11.075032,13.8093 -22.594374,27.8703 -25.598537,31.2468 -8.105716,9.1103 -11.452354,14.7505 -9.735009,16.4068 0.847993,0.8178 8.076275,0.8196 16.568908,0 8.28558,-0.7957 24.480124,-2.2972 35.987873,-3.3367 56.31304,-5.0867 177.12416,-28.9441 263.63211,-52.0611 45.10241,-12.0524 99.83083,-30.2925 105.85288,-35.279 5.53023,-4.5793 -1.95818,-3.7907 -27.61348,2.9079 -45.62926,11.9139 -105.9835,25.2952 -142.6828,31.6346 -46.16429,7.9744 -99.10301,15.6621 -117.32225,17.0375 l -14.91227,1.1257 0.004,-4.0064 c 0.009,-8.7933 8.89606,-36.736 16.71215,-52.5481 25.01155,-50.5986 68.6465,-81.3448 141.4629,-99.678 40.99499,-10.3215 62.23686,-12.4792 122.19139,-12.4123 58.8387,0.066 71.99998,1.3107 142.27765,13.4593 42.57819,7.3604 89.54275,17.3801 131.37961,28.0294 22.8462,5.8154 26.5943,8.7816 16.41551,12.9914 -7.24878,2.998 -48.56593,30.8143 -66.61317,44.8467 -7.82527,6.0844 -25.71854,20.7055 -39.76283,32.4913 -91.41631,76.7156 -145.79351,103.2735 -230.5647,112.6081 -58.98873,6.4957 -128.52097,-5.8153 -187.47173,-33.1925 -10.27166,-4.7703 -17.19492,-6.9504 -21.76011,-6.8524 -3.68248,0.079 -18.37055,2.838 -32.64016,6.131 -14.26962,3.293 -31.97063,6.8307 -39.33559,7.8616 -7.36496,1.031 -21.2998,3.3111 -30.96631,5.067 -9.666511,1.7558 -25.861055,3.9705 -35.987876,4.9215 -30.508405,2.8648 -27.365368,1.269 -42.251202,21.4525 -7.2787347,9.8691 -16.0513765,21.8771 -19.4947597,26.6843 -9.0342153,12.6123 -20.2110743,21.8205 -30.1420533,24.8328 -12.136018,3.6812 -41.268982,4.6104 -53.896764,1.719 z"
           id="path10" /><path
           style="fill:#004225;fill-opacity:1;stroke-width:11.3706"
           d="m 123.79515,2040.8252 c 43.05459,-31.0461 71.8808,-60.2565 100.66281,-102.0044 43.76942,-63.4869 75.2835,-132.7117 101.7284,-223.4596 13.30888,-45.6706 31.7812,-131.6681 38.47132,-179.1025 8.88965,-63.0294 20.052,-81.2388 49.74278,-81.1466 26.54278,0.082 62.27531,20.3323 99.33574,56.2941 8.86835,8.6055 16.99476,15.6463 18.05868,15.6463 3.16972,0 2.2348,-5.5065 -3.1534,-18.573 -17.26852,-41.8766 -44.72539,-81.5989 -79.87798,-115.5606 -35.90352,-34.6873 -63.10996,-54.8157 -103.76133,-76.7665 -12.19821,-6.5867 -22.17857,-13.0146 -22.17857,-14.2842 0,-1.349 2.60833,-2.7811 6.27695,-3.4462 23.00206,-4.1704 45.60865,-22.1912 56.36723,-44.933 18.11674,-38.2956 -1.91657,-84.3181 -42.69673,-98.0872 -8.91865,-3.0113 -13.61454,-3.5215 -27.67462,-3.0072 -15.96226,0.5839 -17.75492,1.0265 -31.25904,7.7181 -16.00649,7.9315 -24.16704,15.8696 -32.62189,31.7325 -11.06004,20.7508 -10.35875,43.3174 2.12132,68.2614 4.15479,8.3042 7.55416,15.6482 7.55416,16.3201 0,2.6588 -2.18802,1.9096 -52.72643,-18.0536 -88.23232,-34.8527 -144.59004,-71.0667 -176.443485,-113.3779 -3.985195,-5.2935 -7.908547,-9.6246 -8.718558,-9.6246 -6.038323,0 4.176858,31.9312 21.15167,66.1172 14.32606,28.8516 25.087721,43.8989 51.271436,71.6893 50.800447,53.9176 69.079297,82.8801 77.826637,123.3148 3.76365,17.3975 3.75146,57.6907 -0.0238,78.6712 -11.69036,64.9672 -38.14758,124.9735 -76.38458,173.2439 -16.778265,21.1809 -62.266215,65.4388 -84.678936,82.3891 -26.053187,19.7035 -58.492159,40.9489 -73.871579,48.381 -6.653675,3.2154 -12.606318,6.6694 -13.228098,7.6754 -2.756557,4.4602 8.854515,7.4441 41.284811,10.6096 14.430049,1.4085 45.216547,-1.7179 66.059755,-6.7083 21.091371,-5.0499 36.26231,-10.6598 73.849877,-27.3079 16.46101,-7.2909 35.20176,-15.2435 41.6461,-17.6727 36.59607,-13.7944 50.29179,-7.5793 54.38167,24.6785 4.20433,33.1604 -8.79969,81.5063 -44.9738,167.2021 -22.31874,52.8726 -36.64768,83.7052 -46.0036,98.989 -10.79862,17.6406 -7.64422,18.6973 12.48509,4.1824 z"
           id="path8" /><path
           style="fill:#004225;fill-opacity:1;stroke-width:11.3706"
           d="m 355.77693,963.2904 c -2.47379,-2.58208 -4.4978,-5.53607 -4.4978,-6.56442 0,-5.29357 -17.76868,-28.11575 -33.89556,-43.53563 -3.45232,-3.30097 -6.27695,-6.96792 -6.27695,-8.14877 0,-1.18084 -1.67407,-3.31955 -3.72016,-4.75268 -2.04608,-1.43314 -3.15659,-2.6057 -2.46779,-2.6057 0.68879,0 0.0943,-2.23947 -1.32115,-4.9766 -1.83479,-3.54811 -1.96725,-4.70646 -0.46145,-4.03547 2.20339,0.98184 8.8324,9.08412 29.28525,35.79375 6.69715,8.74589 16.66504,21.55087 22.15087,28.45552 5.48583,6.90465 10.00204,13.11884 10.03601,13.80931 0.13848,2.81452 -4.61231,0.96434 -8.83127,-3.43931 z"
           id="path4" /></g><path
       style="opacity:0;fill:#004225;fill-opacity:1;stroke:none;stroke-width:1;stroke-dasharray:none"
       id="path22"
       d="m 50.311422,121.99196 c 0.01349,-0.012 0.02529,-0.0262 0.04044,-0.036 0.04903,-0.0318 0.08916,-0.039 0.143703,-0.06 0.08129,-0.0313 0.163102,-0.0598 0.243282,-0.0939 0.07269,-0.0305 0.148375,-0.0398 0.226253,-0.0402 0,0 -3.237556,-2.24317 -3.237556,-2.24317 v 0 c -0.08272,0.0341 -0.162906,0.0731 -0.242504,0.11395 -0.169386,0.0725 -0.33488,0.15371 -0.503965,0.22692 z" /><path
       style="opacity:0;fill:#004225;fill-opacity:1;stroke:none;stroke-width:1;stroke-dasharray:none"
       id="path23"
       d="m 51.282361,121.64184 c 0.05399,-0.0324 0.103087,-0.0749 0.161981,-0.0971 0.258185,-0.0975 0.525314,-0.12424 0.797589,-0.15469 0.470315,-0.0526 0.943343,-0.0824 1.415801,-0.10608 0.549032,-0.0243 1.097442,-0.0498 1.641324,-0.13184 0.411033,-0.0803 0.812353,-0.2012 1.220103,-0.29468 0.332163,-0.0998 0.6786,-0.1433 1.00884,-0.24885 0.08044,-0.0281 0.163044,-0.0459 0.24693,-0.059 0,0 -3.241278,-2.209 -3.241278,-2.209 v 0 c -0.0706,0.0333 -0.140615,0.0679 -0.211992,0.0996 -0.288311,0.11252 -0.583205,0.20992 -0.882687,0.28794 -0.408228,0.10143 -0.820476,0.18217 -1.23553,0.25041 -0.471027,0.0826 -0.935985,0.19848 -1.409787,0.26618 -0.44748,0.0662 -0.896155,0.12215 -1.348198,0.14751 -0.341185,0.0191 -0.676407,0.0277 -1.017024,-0.008 -0.115067,-0.0121 -0.227489,-0.0424 -0.34123,-0.0636 z" /><path
       style="opacity:0;fill:#004225;fill-opacity:1;stroke:none;stroke-width:1;stroke-dasharray:none"
       id="path24"
       d="m 57.241389,120.30485 c 0.04291,-0.0144 0.08481,-0.0322 0.128728,-0.0431 0.17432,-0.0434 0.289793,-0.0521 0.473525,-0.0653 0.276539,-0.0199 0.551957,-0.0182 0.82891,-0.0142 0.327268,0.001 0.65192,0.0372 0.97672,0.0729 0.236156,0.0284 0.474771,2.7e-4 0.711671,-0.007 0.458126,0.0215 0.916755,0.004 1.374997,-0.006 1.172729,-0.0964 2.345092,0.0481 3.506602,0.19834 0.765678,0.10496 1.530554,0.21577 2.291572,0.35073 0.162875,0.0305 0.326234,0.058 0.490041,0.0829 0,0 -3.113141,-2.30587 -3.113141,-2.30587 v 0 c -0.124195,-0.002 -0.248404,-0.003 -0.372536,-0.008 -0.259249,-0.0113 -0.517242,-0.0321 -0.776181,-0.0484 -0.40449,-0.0254 -0.809784,-0.0386 -1.213853,-0.0712 -1.232874,-0.0888 -2.470055,-0.1436 -3.695346,-0.31462 -0.524137,-0.0547 -1.049313,-0.10476 -1.576168,-0.12219 -0.24943,-0.0104 -0.497657,-0.0369 -0.746953,-0.0437 -0.291729,-2.7e-4 -0.583255,0.005 -0.872924,0.0451 -0.528076,0.0434 -1.060566,0.0765 -1.589354,0.0255 z" /><path
       style="opacity:0;fill:#004225;fill-opacity:1;stroke:#004225;stroke-width:1.9;stroke-dasharray:none;stroke-opacity:0.0313725"
       id="path25"
       d="m 62.723455,128.74443 c 0.06977,-0.047 0.174943,-0.11985 0.242692,-0.15218 0.06906,-0.0329 0.14279,-0.055 0.214283,-0.0823 0.256797,-0.0979 0.515088,-0.17976 0.778362,-0.25835 0.378518,-0.0943 0.744575,-0.22744 1.104831,-0.37559 0.171966,-0.0917 0.365429,-0.12644 0.544589,-0.19826 0.02061,-0.006 0.04092,-0.0133 0.06182,-0.0184 0.06223,-0.0151 0.05395,2.7e-4 0.113297,-0.0392 0.04585,-0.0305 0.07123,-0.068 0.124206,-0.0841 0.0345,-0.0215 0.06807,-0.0416 0.104151,-0.0606 0.01101,-0.006 0.02437,-0.006 0.03507,-0.0127 0.03803,-0.0225 0.07152,-0.0519 0.108352,-0.0763 0.124955,-0.1011 0.261673,-0.18633 0.395378,-0.27513 0,0 -3.278989,-2.09809 -3.278989,-2.09809 v 0 c -0.125426,0.0851 -0.251643,0.17307 -0.393269,0.22924 -0.100512,0.0426 -0.200975,0.0804 -0.291751,0.14231 -0.0057,0.004 -0.05327,0.0441 -0.06662,0.0492 -0.0048,0.002 -0.01029,-0.003 -0.01537,-0.002 -0.05556,0.009 -0.100996,0.0479 -0.152971,0.0667 -0.170823,0.0707 -0.326755,0.16841 -0.489043,0.25609 -0.310467,0.16104 -0.633322,0.29377 -0.959694,0.419 -0.114829,0.04 -0.393001,0.13829 -0.506867,0.17166 -0.307954,0.0902 -0.621784,0.16116 -0.938769,0.21069 z" /><circle
       id="path26"
       style="fill:#004225;stroke:#004225;stroke-width:0.264583"
       cx="82.221176"
       cy="27.010813"
       r="0.063185617" /></g></svg>
