<?xml version="1.0" encoding="UTF-8" standalone="no"?>
<!-- Created with Inkscape (http://www.inkscape.org/) -->

<svg
   width="16"
   height="16"
   viewBox="0 0 4.2333333 4.2333333"
   version="1.1"
   id="svg1"
   xml:space="preserve"
   sodipodi:docname="favicon-light.svg"
   inkscape:version="1.4.3 (0d15f75, 2025-12-25)"
   inkscape:export-filename="favicon-light-16.png"
   inkscape:export-xdpi="96"
   inkscape:export-ydpi="96"
   xmlns:inkscape="http://www.inkscape.org/namespaces/inkscape"
   xmlns:sodipodi="http://sodipodi.sourceforge.net/DTD/sodipodi-0.dtd"
   xmlns:xlink="http://www.w3.org/1999/xlink"
   xmlns="http://www.w3.org/2000/svg"
   xmlns:svg="http://www.w3.org/2000/svg"><sodipodi:namedview
     id="namedview2"
     pagecolor="#ffffff"
     bordercolor="#000000"
     borderopacity="0.25"
     inkscape:showpageshadow="2"
     inkscape:pageopacity="0.0"
     inkscape:pagecheckerboard="0"
     inkscape:deskcolor="#d1d1d1"
     inkscape:document-units="mm"
     inkscape:zoom="32"
     inkscape:cx="13.90625"
     inkscape:cy="11.359375"
     inkscape:window-width="1920"
     inkscape:window-height="1009"
     inkscape:window-x="-8"
     inkscape:window-y="-8"
     inkscape:window-maximized="1"
     inkscape:current-layer="g3"
     showgrid="true"><inkscape:grid
       id="grid64"
       units="mm"
       originx="0"
       originy="0"
       spacingx="0.99999999"
       spacingy="0.99999999"
       empcolor="#0099e5"
       empopacity="0.30196078"
       color="#0099e5"
       opacity="0.14901961"
       empspacing="5"
       enabled="true"
       visible="true" /></sodipodi:namedview><defs
     id="defs1"><color-profile
       name="_061F"
       xlink:href="../../../../../WINDOWS/system32/spool/drivers/color/Dell_Inspiron_7501_IVO061F.icm"
       id="color-profile1" /><clipPath
       clipPathUnits="userSpaceOnUse"
       id="clipPath59"><path
         id="path60"
         style="fill:#ff0000;fill-opacity:1;fill-rule:nonzero;stroke:none;stroke-width:3.00858"
         d="M -211.91446,724.47974 V 2235.1916 H 735.27063 V 724.47974 Z M 110.60867,2142.8129 h 0.006 c 0.015,5e-4 0.0358,0 0.0469,0.01 0.003,0 0.012,0 0.0181,0.01 h 0.006 l 0.006,0.01 0.006,0.01 c 0.002,0 0.009,0.015 0.012,0.018 l 0.006,0.01 0.006,0.01 v 0.01 c 0.002,0.01 0.006,0.018 0.006,0.03 v 0.01 0.01 c -0.006,0.021 -0.0211,0.049 -0.0412,0.07 v 0.01 0.01 c -3.6e-4,0.012 -9.9e-4,0.037 -0.006,0.053 l -0.006,0.01 -0.006,0.012 c -0.018,0.021 -0.0469,0.053 -0.0824,0.071 h -0.006 l -0.006,0.01 c -0.002,0 -0.009,0 -0.012,0.01 h -0.006 v 0.01 0.01 l -0.006,0.01 h -0.006 c -0.0181,0.021 -0.0499,0.05 -0.0881,0.065 h -0.006 v 0.012 h -0.006 l -0.006,0.012 h -0.006 c 9.9e-4,0.015 9.9e-4,0.03 0,0.053 v 0.012 h -0.006 v 0.012 0.012 c -0.0181,0.018 -0.0563,0.045 -0.0704,0.053 -0.04,0.024 -0.0824,0.049 -0.12335,0.071 0.003,0.01 0.009,0.018 0.012,0.024 l 0.006,0.01 v 0.01 0.012 0.012 0.012 0.01 0.012 0.012 0.012 l -0.006,0.012 -0.006,0.01 -0.006,0.01 v 0.01 l -0.006,0.012 v 0.01 c -0.002,0 -0.009,0.015 -0.012,0.018 l -0.006,0.01 -0.006,0.012 h -0.006 l -0.006,0.012 h -0.006 c -0.015,0.01 -0.0433,0.021 -0.053,0.024 -0.0271,0.01 -0.0553,0.024 -0.0821,0.035 -6e-4,0.044 0.009,0.073 0,0.1173 l -0.006,0.012 v 0.012 h -0.006 -0.006 -0.006 v 0.012 l -0.006,0.012 h -0.006 -0.006 v 0.012 0.012 h -0.006 -0.006 -0.006 c -0.003,0 -0.009,0.012 -0.012,0.012 l -0.006,0.01 h -0.006 -0.006 v 0.012 h -0.006 -0.006 -0.012 -0.006 v 0.012 h -0.006 c -0.0454,0.012 -0.09,0.035 -0.13509,0.047 v 0.024 c -0.0502,0.015 -0.0948,0.015 -0.12335,0 l -0.006,-0.012 h -0.006 v -0.01 h -0.006 l -0.006,-0.012 v -0.012 -0.01 h -0.006 l -0.006,-0.012 v -0.01 l -0.006,-0.01 v -0.01 -0.012 -0.012 h -0.006 -0.006 c -0.003,-2e-4 -0.0151,6e-4 -0.0181,0 l -0.006,-0.01 h -0.006 l -0.006,-0.01 -0.006,-0.01 h -0.012 -0.006 l -0.006,-0.012 h -0.006 v -0.012 h -0.006 v -0.012 -0.012 h -0.006 l -0.006,-0.012 -0.006,-0.012 h -0.006 l -0.006,-0.012 h -0.006 -0.006 l -0.006,-0.01 v -0.012 l -0.006,-0.012 -0.006,-0.01 v -0.01 -0.012 l -0.006,-0.012 h -0.006 l -0.006,0.012 h -0.006 -0.006 -0.006 c -0.015,-0.027 -0.0271,-0.054 -0.0352,-0.082 -0.0391,0.012 -0.0857,0.01 -0.11162,0 l -0.006,-0.01 h -0.006 v -0.01 h -0.006 v -0.01 -0.012 h -0.006 v -0.012 h -0.006 v -0.01 -0.012 h -0.006 v -0.01 c -0.002,0 -0.003,-0.012 -0.006,-0.018 v -0.012 c 8.1e-4,-0.012 7.8e-4,-0.021 0.006,-0.035 -0.0211,0 -0.0373,0 -0.0529,-0.01 -0.009,0 -0.0241,-0.015 -0.0301,-0.018 -9.9e-4,0 -0.009,0 -0.012,-0.01 v -0.01 h -0.006 c -0.002,0 -0.009,-0.015 -0.012,-0.018 -0.001,0 -0.006,-0.015 -0.006,-0.018 -0.001,-0.01 -6.9e-4,-0.018 0,-0.03 v -0.01 -0.01 c 0.012,-0.032 0.0472,-0.074 0.0999,-0.1 0.077,-0.034 0.15314,-0.065 0.23497,-0.088 0.0803,-0.024 0.16126,-0.048 0.24099,-0.082 0.0605,-0.024 0.12185,-0.036 0.18232,-0.059 0.0512,-0.024 0.10259,-0.03 0.15284,-0.053 0.0641,-0.034 0.13027,-0.059 0.19405,-0.082 0.0695,-0.024 0.13599,-0.066 0.19977,-0.1 0.003,0 0.009,0 0.012,-0.01 0.012,-0.01 0.0343,-0.021 0.0469,-0.03 0.003,0 0.015,-0.01 0.0181,-0.012 0.0301,-0.015 0.0584,-0.027 0.0824,-0.03 z" /></clipPath></defs><g
     id="layer1"
     transform="translate(-4.0553493,-4.1869234)"><g
       id="g60"
       style="fill:#004220;fill-opacity:1"><g
         id="g1"
         transform="matrix(0.43430385,0,0,0.43430385,169.86613,206.3185)"
         style="fill:#004220;fill-opacity:1;stroke-width:2.30246"><g
           id="g3"
           transform="matrix(0.00848662,0,0,0.00673815,-378.34628,-470.14177)"
           style="mix-blend-mode:multiply;fill:#004220;fill-opacity:1;stroke-width:304.476"><g
             id="g64"
             transform="matrix(1.0109135,0,0,0.95483124,-40.309641,46.850794)"
             style="stroke-width:309.908"><ellipse
               style="fill:#00421f;fill-opacity:1;stroke:none;stroke-width:0;stroke-dasharray:none"
               id="path2"
               cx="-185.43976"
               cy="323.62347"
               rx="28.795881"
               ry="22.279961"
               transform="matrix(1.7973953,0,0,1.7973953,404.78539,1534.2798)" /><path
               id="path10"
               style="fill:#004220;fill-opacity:1;stroke-width:0;stroke-dasharray:none"
               d="m 165.70326,724.47974 c -0.38936,-10e-4 -0.74672,0.0751 -1.08708,0.20567 -1.27871,0.49068 -4.5324,4.39966 -7.23352,8.69079 -16.15726,25.66821 -43.10601,67.97539 -64.14383,100.69924 -22.010544,34.23693 -35.834632,56.28111 -95.5164891,152.32103 -10.5838199,17.03153 -32.0497109,50.99263 -47.7024209,75.46713 -103.57233,161.9451 -143.49711,254.0909 -159.84836,368.9446 -2.81296,19.759 -2.77364,98 0.0588,121.3538 2.2882,18.8675 10.72088,67.5618 14.78435,85.3684 20.19897,88.5141 54.35696,150.6876 117.757636,214.3201 32.834994,32.9551 62.022559,56.6986 130.973056,106.5519 15.853713,11.4628 21.691954,18.0694 25.502403,28.8694 3.250822,9.2138 3.284712,30.4718 0.06464,41.315 -2.740738,9.2291 -12.268606,23.7773 -23.980486,36.6142 -7.449056,8.1646 -17.045779,18.3949 -27.835227,29.7274 5.459183,1.7602 10.72296,4.0972 15.883179,6.5988 8.719207,4.5683 17.102042,9.7244 25.396633,15.0136 6.864085,4.5371 13.513447,9.3928 20.17863,14.2143 5.650355,3.7156 11.380406,7.3046 17.193556,10.7592 1.22896,0.7613 2.46122,1.517 3.69608,2.2682 40.75936,-47.3118 91.0917,-99.7065 119.2443,-123.3282 20.92193,-17.5548 50.47478,-37.0603 89.55222,-59.1139 85.84615,-48.4479 106.71134,-62.8585 141.48545,-97.7318 25.58719,-25.6602 39.23612,-42.4421 55.6352,-68.3922 11.90063,-18.8316 31.32462,-57.0095 39.52285,-77.6825 20.31209,-51.22 33.69238,-112.9063 37.11363,-171.1129 4.85273,-82.5608 -11.40417,-178.8489 -46.07473,-272.9168 -14.57943,-39.5568 -22.65956,-58.0065 -44.3589,-101.3045 C 440.86278,1050.2792 349.68343,924.94041 202.82277,760.99401 176.36794,731.46145 169.46699,724.49034 165.70326,724.47974 Z M 24.50574,1140.0396 c 0.02021,0 0.04342,10e-5 0.06464,0 0.594879,0 1.586322,0.9067 3.008578,2.8676 15.912892,21.9393 37.098361,41.6994 63.415193,59.1491 19.623259,13.0114 78.738229,43.1667 106.293309,54.2191 56.47761,22.6532 66.95262,25.9668 66.95262,21.1775 0,-1.0303 -2.53567,-6.116 -5.63521,-11.2998 -9.80361,-16.3961 -11.94029,-24.2248 -11.94029,-43.7419 0,-16.0403 0.43191,-18.4519 4.91244,-27.6178 9.46835,-19.3695 29.61772,-34.8693 51.39851,-39.5405 12.06153,-2.5867 31.96343,-0.8996 44.12386,3.7431 12.94744,4.9432 29.93328,21.4013 36.9491,35.7974 4.5105,9.2553 4.89001,11.4901 4.87131,28.4581 -0.0193,17.5206 -0.29492,18.9775 -5.72335,30.1269 -6.33937,13.0204 -19.80737,27.6912 -31.91326,34.7573 -4.14279,2.4181 -12.80586,5.7769 -19.2502,7.4627 -17.86184,4.6726 -16.70196,6.8532 11.88741,22.3763 44.8429,24.3482 68.39074,42.1539 106.9867,80.8967 29.49912,29.6114 42.44121,46.5594 60.82969,79.6392 10.52298,18.9302 21.72421,45.1933 19.27371,45.1933 -0.53568,0 -8.15652,-6.7938 -16.93501,-15.1017 -18.65708,-17.657 -36.54327,-31.3367 -53.08496,-40.7215 -0.12699,-0.011 -0.25559,-0.027 -0.38194,-0.041 0.027,0 0.10688,-0.014 0.14102,-0.018 0.0386,0 0.0793,-0.01 0.11753,-0.012 -17.29631,-9.7945 -33.12021,-14.8881 -46.81513,-14.9137 -14.14221,-0.026 -23.0664,3.9288 -30.73803,13.615 -10.52264,13.2859 -14.35552,26.3465 -21.20108,72.247 -11.01021,73.8251 -31.75466,161.5879 -53.21423,225.144 -16.8369,49.8653 -44.73256,109.0794 -70.96602,150.6463 -33.24795,52.6813 -61.58888,84.1513 -105.44715,117.0819 -27.60329,20.7256 -27.99545,20.7542 -16.48254,1.0753 9.02258,-15.4223 16.32107,-31.1489 37.76001,-81.3315 23.97834,-56.1266 29.4823,-70.4972 38.41813,-100.3584 10.65466,-35.6051 12.64547,-46.6128 12.58667,-69.6263 -0.0462,-18.0693 -0.38037,-19.9928 -5.02409,-29.1926 -11.20905,-22.2065 -24.42083,-21.4092 -84.47524,5.0711 -56.954007,25.1131 -71.09339,29.9904 -101.886211,35.1393 -13.58848458,2.2722 -22.9702813,2.6888 -43.506865,1.9391 -25.734006,-0.9395 -42.078965,-3.3582 -42.078965,-6.2228 0,-0.799 4.705636,-3.7031 10.459511,-6.452 23.945972,-11.4401 75.65063,-47.7706 103.97224,-73.0579 64.01572,-57.1573 103.41463,-118.8178 124.02159,-194.1121 9.53308,-34.8322 11.57182,-48.7382 11.66412,-79.5099 0.11134,-37.1056 -3.49259,-52.6948 -19.42061,-83.9699 -11.96265,-23.489 -25.86847,-41.4023 -61.346792,-79.0163 -30.702833,-32.5511 -43.617721,-51.8634 -59.466433,-88.9294 -10.217063,-23.895 -15.741226,-42.7367 -13.174283,-43.0368 z m 261.69287,836.9371 c -691.41488,-1275.50014 -691.41488,-1275.50014 0,0 z M 13.158904,2135.6441 c -0.104772,0.049 -0.223264,0.1065 -0.287931,0.1351 -0.01699,0.01 -0.03593,0.02 -0.05288,0.029 0.110343,-0.04 0.252471,-0.1216 0.340811,-0.1641 z m -5.2650125,18.5568 c -0.039673,0.07 -0.08343,0.1359 -0.1233987,0.2056 0.05399,-0.033 0.1105422,-0.067 0.1645317,-0.1 -0.013545,-0.035 -0.027551,-0.071 -0.041133,-0.1056 z"
               clip-path="url(#clipPath59)"
               sodipodi:nodetypes="ssssssssssssssccccccssssssssssccssssssssssssssssssscccccsssssssssssssssssssssccccccsccscc" /></g></g></g></g></g></svg>
