<?xml version="1.0" encoding="UTF-8" standalone="no"?>
<!-- Created with Inkscape (http://www.inkscape.org/) -->

<svg
   width="140.96761mm"
   height="140.96761mm"
   viewBox="-27.18 0 140.96761 140.96761"
   version="1.1"
   id="svg1"
   xml:space="preserve"
   sodipodi:docname="favicon-light.svg.svg"
   inkscape:version="1.4.3 (0d15f75, 2025-12-25)"
   xmlns:inkscape="http://www.inkscape.org/namespaces/inkscape"
   xmlns:sodipodi="http://sodipodi.sourceforge.net/DTD/sodipodi-0.dtd"
   xmlns:xlink="http://www.w3.org/1999/xlink"
   xmlns="http://www.w3.org/2000/svg"
   xmlns:svg="http://www.w3.org/2000/svg"><sodipodi:namedview
     id="namedview2"
     pagecolor="#ffffff"
     bordercolor="#000000"
     borderopacity="0.25"
     inkscape:showpageshadow="2"
     inkscape:pageopacity="0.0"
     inkscape:pagecheckerboard="0"
     inkscape:deskcolor="#d1d1d1"
     inkscape:document-units="mm"
     inkscape:zoom="1.4921425"
     inkscape:cx="264.72003"
     inkscape:cy="295.2131"
     inkscape:window-width="1920"
     inkscape:window-height="1009"
     inkscape:window-x="-8"
     inkscape:window-y="-8"
     inkscape:window-maximized="1"
     inkscape:current-layer="layer1" /><defs
     id="defs1" /><g
     id="layer1"
     transform="translate(-4.0553493,-4.1869234)"><g
       id="g60"
       style="fill:#004220;fill-opacity:1"><g
         id="g1"
         transform="matrix(0.15806829,0,0,0.15806829,63.748349,77.478476)"
         style="stroke-width:6.32615;fill:#004220;fill-opacity:1"><path
           id="path1"
           style="fill:#004220;stroke-width:6.32615;fill-opacity:1"
           d="m -22.00205,-119.35633 c -0.396757,0.0146 -0.748156,0.26608 -0.810773,0.8075 -0.05799,0.50144 0.0554,0.74219 0.395579,0.83039 1.161242,0.30089 1.670585,0.19036 1.670585,-0.36288 0,-0.81199 -0.675515,-1.29632 -1.255391,-1.27501 z m -112.38364,43.098487 c -0.52917,0 -0.66366,0.131218 -0.66366,0.660388 0,0.52917 0.13449,0.660388 0.66366,0.660388 0.52917,0 0.66038,-0.131218 0.66038,-0.660388 0,-0.52917 -0.13121,-0.660388 -0.66038,-0.660388 z m 3.94271,8.72889 c -0.72079,0 -0.81272,0.477163 -0.34654,1.814433 0.21708,0.62273 0.45019,0.833658 0.9252,0.833658 0.72079,0 0.81272,-0.477153 0.34654,-1.814433 -0.21709,-0.62273 -0.45019,-0.833658 -0.9252,-0.833658 z m 152.7,52.680651 c -0.347879,0.01448 -0.408656,0.155087 -0.408656,0.572118 0,0.348769 0.07953,0.713763 0.176539,0.810773 0.09701,0.09702 0.522838,0.17654 0.944813,0.17654 0.680907,0 0.757572,-0.08005 0.683272,-0.725773 -0.06976,-0.606281 -0.228298,-0.741684 -0.944812,-0.810774 -0.188503,-0.01817 -0.335197,-0.02771 -0.451156,-0.02288 z m 44.638302,33.055359 c -0.447245,-0.0063 -0.595003,0.141087 -0.595003,0.598272 0,0.334697 0.142492,0.750572 0.317117,0.925197 0.174625,0.174625 0.651778,0.317117 1.059236,0.317117 0.580574,0 0.73885,-0.121906 0.73885,-0.56558 0,-0.67792 -0.699069,-1.263396 -1.5202,-1.275006 z M -119.72966,140.69921 c -0.90442,0 -1.02981,0.0759 -1.02981,0.62116 0,0.38257 0.22827,0.73198 0.595,0.90885 0.98423,0.47468 1.78501,0.39007 1.78501,-0.18635 0,-1.05184 -0.29314,-1.34366 -1.3502,-1.34366 z m -76.67038,25.66686 c -0.33103,0.0192 -0.78426,0.12273 -1.38943,0.30404 -0.809,0.24239 -1.02328,0.43517 -1.02328,0.9252 0,0.7183 0.53736,0.79736 2.15117,0.31385 0.809,-0.24238 1.02327,-0.43517 1.02327,-0.9252 0,-0.44894 -0.21003,-0.64985 -0.76173,-0.61789 z m 47.82254,125.69602 c -0.10096,-0.006 -0.23385,0.006 -0.40865,0.0262 -0.63033,0.0722 -0.75909,0.22134 -0.83039,0.96442 -0.0791,0.82435 -0.0388,0.87453 0.66039,0.79443 0.63033,-0.0722 0.75909,-0.22134 0.83039,-0.96443 0.0593,-0.61826 0.0512,-0.80181 -0.25174,-0.82058 z" /><g
           id="g3"
           transform="matrix(0.55636063,0,0,0.55636063,-225.20665,-853.61289)"
           style="stroke-width:11.3706;fill:#004220;fill-opacity:1"><path
             id="path8"
             style="fill:#004220;fill-opacity:1;stroke-width:11.3706"
             d="m 165.75416,727.29876 c -1.38923,0.26855 -7.19771,8.02262 -12.90986,17.22882 -5.71214,9.2062 -22.49763,35.56951 -37.30167,58.58501 -28.608473,44.47698 -83.724595,131.96898 -112.8158121,179.09856 -9.6604578,15.65054 -25.3060729,40.51145 -34.7690599,55.24145 -67.315936,104.7828 -93.382478,149.9567 -119.402958,206.9338 -23.941,52.4237 -38.80444,95.7033 -47.8787,139.3995 -9.23795,44.4844 -10.87641,60.313 -10.82971,104.7655 0.0481,45.7765 1.79787,65.2902 9.8954,110.53 18.83559,105.2318 46.78583,165.7452 108.602632,235.1216 29.642821,33.2678 76.876164,72.9501 140.457129,117.9985 29.069778,20.5965 35.384715,30.809 35.192141,56.9221 -0.166073,22.5196 -6.344777,34.9228 -30.244439,60.7357 -7.597476,8.2056 -15.726397,16.8774 -24.150894,25.7785 4.711431,1.6563 9.285865,3.7094 13.779525,5.8879 8.719207,4.5683 17.102041,9.7243 25.396632,15.0135 6.864085,4.5371 13.513447,9.3929 20.17863,14.2144 5.650355,3.7156 11.380404,7.3046 17.193554,10.7592 0.53776,0.3331 1.077,0.6678 1.61594,0.9989 22.02253,-26.0647 42.96187,-48.4485 74.40943,-79.9917 52.29252,-52.4515 69.97866,-65.867 136.53187,-103.5727 83.11175,-47.087 102.6575,-60.3443 134.46936,-91.2093 40.34193,-39.1412 66.80004,-77.0473 91.35619,-130.8908 19.1341,-41.9547 32.82227,-90.349 42.06133,-148.7013 3.65761,-23.1008 5.0069,-87.6606 2.48561,-118.9035 -6.22437,-77.1304 -30.00274,-166.515 -66.32976,-249.3418 C 490.23051,1145.7627 433.4673,1051.1808 371.55973,967.98504 309.16649,884.13653 173.73802,725.75542 165.75416,727.29876 Z M 23.005342,1135.3725 c 0.810011,0 4.729105,4.3316 8.7143,9.6251 31.853445,42.3112 88.210228,78.5213 176.442548,113.374 50.53841,19.9632 52.72651,20.7162 52.72651,18.0574 0,-0.6719 -3.39603,-8.0197 -7.55082,-16.3239 -12.48007,-24.944 -13.18133,-47.5063 -2.12129,-68.2571 8.45485,-15.8629 16.61191,-23.8055 32.6184,-31.737 13.50412,-6.6916 15.29875,-7.1315 31.26101,-7.7154 14.06008,-0.5143 18.75792,0 27.67657,3.0086 40.78016,13.7691 60.8127,59.7888 42.69596,98.0844 -10.75858,22.7418 -33.36765,40.7643 -56.36971,44.9347 -3.66862,0.6651 -6.27571,2.0944 -6.27571,3.4434 0,1.2696 9.9783,7.6982 22.17651,14.2849 40.65137,21.9508 67.86306,42.0785 103.76658,76.7658 35.15259,33.9617 62.60571,73.6833 79.87423,115.5599 5.3882,13.0665 6.3252,18.5745 3.15548,18.5745 -1.06392,0 -9.18899,-7.0427 -18.05734,-15.6482 -37.06043,-35.9618 -72.7932,-56.2113 -99.33598,-56.2933 -29.69078,-0.092 -40.85766,18.12 -49.74731,81.1494 -6.69012,47.4344 -25.16214,133.4338 -38.47102,179.1044 -26.4449,90.7479 -57.95814,159.9706 -101.72756,223.4575 -28.78201,41.7479 -57.60939,70.9576 -100.66398,102.0037 -20.12931,14.5149 -23.27952,13.4568 -12.4809,-4.1838 9.35592,-15.2838 23.68548,-46.1167 46.00422,-98.9893 36.17411,-85.6958 49.17435,-134.039 44.97002,-167.1994 -4.08988,-32.2578 -17.78163,-38.4741 -54.3777,-24.6797 -6.44434,2.4292 -25.189,10.3845 -41.65001,17.6754 -37.587573,16.6481 -52.75983,22.2565 -73.851201,27.3064 -20.843208,4.9904 -51.629401,8.1131 -66.05945,6.7046 -32.430296,-3.1655 -44.036369,-6.1462 -41.279812,-10.6064 0.62178,-1.006 6.573493,-4.4588 13.227168,-7.6742 15.37942,-7.4321 47.81564,-28.6806 73.868827,-48.3841 22.412721,-16.9503 67.902641,-61.2083 84.680906,-82.3892 38.237002,-48.2704 64.693452,-108.2728 76.383812,-173.24 3.77526,-20.9805 3.78715,-61.278 0.0235,-78.6755 -8.74734,-40.4347 -27.02889,-69.393 -77.829335,-123.3106 -26.183715,-27.7904 -36.943172,-42.8372 -51.269232,-71.6888 -16.974812,-34.186 -27.186514,-66.1182 -21.148191,-66.1182 z m 370.278438,898.8128 v 0.012 h 0.006 z m 0.0118,0.012 v 0.01 0.012 h 0.006 l 0.006,-0.01 v -0.01 l 0.006,-0.01 c -0.003,3e-4 -0.009,0 -0.0118,0 z m 310.44769,26.8598 v 0.012 c 0.0992,0.1254 0.20144,0.2485 0.30556,0.3702 0.14463,0.1687 0.58003,0.5169 0.69338,0.5464 l 0.006,0.012 h 0.006 0.006 l 0.006,-0.012 0.006,-0.012 v -0.01 -0.012 c -0.005,-0.01 -0.0165,-0.03 -0.0235,-0.041 -0.14782,-0.2377 -0.38358,-0.4076 -0.57586,-0.6111 -0.15431,-0.088 -0.29609,-0.17 -0.42896,-0.2468 z m 30.60876,5.2415 v 0.01 c 0.21657,0.183 0.48399,0.3649 0.88142,0.5994 l 0.006,0.01 h 0.006 v 0.01 h 0.006 0.006 0.006 0.006 v -0.012 c -0.0449,-0.06 -0.35153,-0.3226 -0.48772,-0.3937 -0.14296,-0.076 -0.28658,-0.143 -0.42896,-0.2116 z m -201.42197,12.0108 c -0.55663,0.4864 -1.11847,0.9764 -1.6747,1.4632 0.52416,-0.2269 1.0497,-0.451 1.5748,-0.6758 0.0331,-0.2604 0.0694,-0.5263 0.0999,-0.7874 z m -519.773062,57.3334 c -0.104772,0.049 -0.223263,0.1066 -0.28793,0.1352 -0.01699,0.01 -0.03592,0.02 -0.05288,0.029 0.115143,-0.051 0.232163,-0.1043 0.346691,-0.1587 z m -5.265012,18.5569 c -0.039673,0.07 -0.08343,0.1359 -0.1233987,0.2056 0.05399,-0.033 0.1105421,-0.067 0.1645316,-0.1 -0.014168,-0.037 -0.026976,-0.069 -0.041133,-0.1057 z m 577.776334,3.7783 c -0.20078,0.1525 -0.39865,0.3057 -0.59936,0.4583 v 0.012 c 0.22309,-0.1568 0.44693,-0.313 0.66987,-0.4701 -0.0223,0 -0.0482,0 -0.0705,0 z m -586.9372203,1.0342 v 0.029 c -0.2515266,0.01 -0.7502758,0.087 -1.5336699,0.2997 1.0170796,0 1.6376857,-0.1587 1.7217061,-0.2468 v -0.012 h 0.00588 v -0.01 -0.012 -0.012 -0.012 h -0.00588 v -0.01 h -0.00588 v -0.012 c -0.029041,-0.012 -0.094114,-0.015 -0.18216,-0.012 z m 53.7724633,61.6817 c -0.08906,0.1152 -0.181335,0.2314 -0.270302,0.3467 0.08382,-0.014 0.168858,-0.028 0.252674,-0.041 0.0052,-0.1017 0.01241,-0.2039 0.01763,-0.3056 z m 317.081837,11.2646 v 0.041 c -0.19969,0.1168 -0.39951,0.2303 -0.59936,0.3467 0.10124,0.2362 0.20128,0.4728 0.31143,0.7051 0.26301,0.5539 0.55765,1.0982 0.90492,1.6042 0.10491,0.1528 0.37526,0.5021 0.48185,0.5348 h 0.006 0.006 0.006 0.006 0.006 l 0.006,-0.012 0.006,-0.01 v -0.012 -0.012 c 5e-4,0 0.004,-0.011 0.006,-0.018 v -0.012 -0.01 -0.012 c -0.004,-0.06 -0.0194,-0.1189 -0.0353,-0.1822 -0.10304,-0.2142 -0.19868,-0.4332 -0.29381,-0.6522 -0.41478,-0.6707 -1.08473,-1.3268 -1.16347,-1.4984 v -0.012 -0.01 l -0.006,-0.01 v -0.01 -0.01 -0.012 h 0.006 c 0.12415,-0.1623 0.29731,-0.225 0.49947,-0.2409 -0.0346,-0.1102 -0.0673,-0.2236 -0.0999,-0.335 -0.0185,-0.063 -0.0354,-0.1247 -0.0529,-0.188 z" /></g></g><path
         style="fill:#004220;fill-opacity:1;stroke:none;stroke-width:0.264583"
         id="path3"
         d="m 37.061563,58.490736 c 0.304855,0.433374 0.590359,0.879382 0.865762,1.331917 0.256545,0.441368 0.465343,0.905992 0.625609,1.390288 0.120833,0.392642 0.14364,0.793628 0.110043,1.199906 -0.05445,0.363945 -0.167425,0.709375 -0.305869,1.048563 -0.148127,0.411824 -0.278347,0.830794 -0.371009,1.258721 -0.02593,-0.0042 -0.07204,0.691602 -0.07961,0.441637 0.05233,-0.303287 0.08643,-0.608492 0.108349,-0.915342 0.02617,-0.548479 0.02418,-1.097894 0.02574,-1.64687 0.008,-0.492493 0.0047,-0.982715 -0.03767,-1.473414 -0.0477,-0.659779 -0.149231,-1.316776 -0.277413,-1.965548 -0.08487,-0.356912 -0.220266,-0.688681 -0.461127,-0.967118 0,0 -7.94e-4,-2.64e-4 -7.94e-4,-2.64e-4 v 0 c 0.240882,0.27841 0.376275,0.610176 0.461164,0.967078 0.128191,0.648766 0.229722,1.305761 0.277413,1.965537 0.04232,0.490696 0.04566,0.980916 0.03768,1.473409 -0.0016,0.548971 5.29e-4,1.098383 -0.02577,1.646856 -0.02193,0.306854 -0.05601,0.612061 -0.108365,0.915348 0.01431,0.252095 0.05149,-0.442564 0.08136,-0.440727 0.09266,-0.427922 0.22287,-0.846887 0.370999,-1.258705 0.138454,-0.339196 0.251431,-0.684633 0.305882,-1.048589 0.0336,-0.406289 0.01082,-0.807289 -0.110027,-1.199944 -0.160263,-0.484304 -0.369062,-0.948933 -0.625604,-1.390308 -0.275397,-0.452536 -0.560904,-0.898539 -0.865746,-1.331918 z" /><circle
         id="path26"
         style="fill:#004220;stroke:#005c40;stroke-width:0.264583;fill-opacity:1"
         cx="82.221176"
         cy="27.010813"
         r="0.063185617" /><g
         id="g42"
         transform="matrix(0.13699831,0,0,0.13710233,67.462838,75.683245)"
         style="stroke-width:7.29635;fill:#004220;fill-opacity:1"><g
           id="g40"
           transform="matrix(0.55636063,0,0,0.55636063,-225.20665,-853.61289)"
           style="stroke-width:13.1144;fill:#004220;fill-opacity:1"><path
             id="path7"
             style="fill:#004220;fill-opacity:1;stroke-width:13.1144"
             d="m 563.22663,1370.2396 -0.006,0.01 c 2.00255,0.5231 3.849,0.6275 5.37078,0.1 -2.2352,-0.062 -3.66642,-0.1271 -5.36491,-0.1058 z M -34.046698,2161.484 c -0.120894,0.1225 -0.243546,0.242 -0.36432,0.3643 0.37628,0.3407 0.750922,0.683 1.128217,1.0225 -0.281883,-0.4619 -0.533692,-0.9242 -0.763897,-1.3868 z m 11.981429,11.194 c 0.837079,0.7133 1.674196,1.4242 2.514983,2.1331 -0.09386,-0.325 -0.184819,-0.6397 -0.276178,-0.9461 -0.746041,-0.397 -1.490605,-0.794 -2.238805,-1.187 z m -51.704066,28.4052 v 0.01 c -4.814617,4.6863 -9.287487,8.9904 -13.338815,12.8217 -21.54567,20.3752 -41.23635,39.8849 -43.75366,43.36 -9.36151,12.9232 -7.82129,26.7239 4.43648,39.8284 8.12003,8.681 18.51765,13.9743 34.810189,17.7048 v -0.012 c 12.627782,2.8914 41.759844,1.9595 53.895862,-1.7217 9.930979,-3.0123 21.11033,-12.2202 30.1445455,-24.8325 3.4433832,-4.8072 12.2123866,-16.8144 19.4911225,-26.6835 3.088674,-4.1879 5.405964,-7.4367 7.403923,-9.9836 -3.012246,-1.7541 -6.021274,-3.5196 -9.055116,-5.2356 -7.6360788,-4.504 -15.2239314,-9.0887 -22.505576,-14.1556 -6.472831,-4.2691 -12.966507,-8.5274 -19.843691,-12.1283 -7.791071,-4.0745 -15.666682,-7.9746 -23.545652,-11.8757 -4.879412,-2.2321 -9.798641,-4.407 -14.942998,-5.9642 -1.131098,-0.3424 -2.196483,-0.7206 -3.196614,-1.1283 z m 393.865225,38.142 c -0.65122,1.1285 -1.1802,2.3108 -1.83335,3.6902 0.82451,-1.0965 1.35042,-2.4082 1.83335,-3.6902 z m -382.894491,19.0504 c 6.95902,0.1351 13.422195,1.1895 18.28064,3.3964 7.535343,3.4228 15.830293,12.2535 15.830293,16.8469 0,5.5448 -6.618934,11.6593 -15.460097,14.2848 -13.64993,4.0536 -35.204844,3.3082 -47.308721,-1.6335 -10.458604,-4.2701 -17.575504,-10.6296 -17.575504,-15.7069 0,-9.7364 25.356329,-17.593 46.233389,-17.1877 z" /></g></g></g></g></svg>
