<?xml version="1.0" encoding="UTF-8" standalone="no"?>
<!-- Created with Inkscape (http://www.inkscape.org/) -->

<svg
   width="397.60773mm"
   height="140.65742mm"
   viewBox="0 0 397.60773 140.65742"
   version="1.1"
   id="svg1"
   xml:space="preserve"
   inkscape:version="1.4.3 (0d15f75, 2025-12-25)"
   sodipodi:docname="drawinggreenonwhite.svg"
   inkscape:export-filename="invertedNOBG.svg"
   inkscape:export-xdpi="96"
   inkscape:export-ydpi="96"
   xmlns:inkscape="http://www.inkscape.org/namespaces/inkscape"
   xmlns:sodipodi="http://sodipodi.sourceforge.net/DTD/sodipodi-0.dtd"
   xmlns:xlink="http://www.w3.org/1999/xlink"
   xmlns="http://www.w3.org/2000/svg"
   xmlns:svg="http://www.w3.org/2000/svg"><sodipodi:namedview
     id="namedview1"
     pagecolor="#ffffff"
     bordercolor="#000000"
     borderopacity="0.25"
     inkscape:showpageshadow="2"
     inkscape:pageopacity="0.0"
     inkscape:pagecheckerboard="0"
     inkscape:deskcolor="#d1d1d1"
     inkscape:document-units="mm"
     showborder="false"
     showgrid="true"
     inkscape:zoom="0.70822811"
     inkscape:cx="835.88888"
     inkscape:cy="438.41807"
     inkscape:window-width="1920"
     inkscape:window-height="1009"
     inkscape:window-x="-8"
     inkscape:window-y="-8"
     inkscape:window-maximized="1"
     inkscape:current-layer="layer1"
     inkscape:export-bgcolor="#ffffffff"><inkscape:grid
       id="grid2"
       units="mm"
       originx="-5.4561157"
       originy="-4.5377316"
       spacingx="0.99999999"
       spacingy="0.99999999"
       empcolor="#0099e5"
       empopacity="0.30196078"
       color="#0099e5"
       opacity="0.14901961"
       empspacing="5"
       enabled="true"
       visible="true" /><inkscape:page
       x="0"
       y="0"
       width="397.60773"
       height="140.65742"
       id="page3"
       margin="0"
       bleed="0" /></sodipodi:namedview><defs
     id="defs1"><color-profile
       name="_061F"
       xlink:href="../../../../../WINDOWS/system32/spool/drivers/color/Dell_Inspiron_7501_IVO061F.icm"
       id="color-profile1" /></defs><g
     inkscape:label="Layer 1"
     inkscape:groupmode="layer"
     id="layer1"
     transform="translate(-5.4561158,-4.5377316)"><text
       xml:space="preserve"
       style="font-style:normal;font-variant:normal;font-weight:bold;font-stretch:normal;font-size:25.4px;line-height:1.15;font-family:Poppins;-inkscape-font-specification:'Poppins Bold';writing-mode:lr-tb;direction:ltr;fill:#005c40;fill-opacity:1;stroke:none;stroke-width:7;stroke-miterlimit:1.7;stroke-opacity:0.0313725"
       x="106.52009"
       y="38.633667"
       id="text7"
       transform="scale(1.024147,0.97642233)"><tspan
         sodipodi:role="line"
         id="tspan7"
         style="font-style:normal;font-variant:normal;font-weight:300;font-stretch:normal;font-size:25.4px;line-height:1.15;font-family:Poppins;-inkscape-font-specification:'Poppins Light';fill:#005c40;fill-opacity:1;stroke:none;stroke-width:7"
         x="106.52009"
         y="38.633667">Forest </tspan><tspan
         sodipodi:role="line"
         style="font-style:normal;font-variant:normal;font-weight:300;font-stretch:normal;font-size:25.4px;line-height:1.15;font-family:Poppins;-inkscape-font-specification:'Poppins Light';fill:#005c40;fill-opacity:1;stroke:none"
         x="106.52009"
         y="67.843666"
         id="tspan8">Governance</tspan><tspan
         sodipodi:role="line"
         style="font-style:normal;font-variant:normal;font-weight:300;font-stretch:normal;font-size:25.4px;line-height:1.15;font-family:Poppins;-inkscape-font-specification:'Poppins Light';fill:#005c40;fill-opacity:1;stroke:none;stroke-width:7"
         x="106.52009"
         y="97.053665"
         id="tspan9">Lab</tspan></text><text
       xml:space="preserve"
       style="font-style:normal;font-variant:normal;font-weight:bold;font-stretch:normal;font-size:12.3472px;font-family:Poppins;-inkscape-font-specification:'Poppins Bold';writing-mode:lr-tb;direction:ltr;fill:#005c40;fill-opacity:1;stroke:#00e5c4;stroke-width:7;stroke-miterlimit:1.7;stroke-opacity:0.0313725"
       x="110.11994"
       y="128.98959"
       id="text11"><tspan
         sodipodi:role="line"
         id="tspan11"
         style="font-style:normal;font-variant:normal;font-weight:300;font-stretch:normal;font-size:12.3472px;font-family:Poppins;-inkscape-font-specification:'Poppins Light';fill:#005c40;fill-opacity:1;stroke:none;stroke-width:7"
         x="110.11994"
         y="128.98959">Technical Writing · Research · Advisory · Training</tspan></text><rect
       style="fill:#005c40;fill-opacity:1;stroke:none;stroke-width:7.00001;stroke-miterlimit:1.7;stroke-opacity:0.0313725"
       id="rect12"
       width="292.97897"
       height="1.00899"
       x="110.08488"
       y="106.87706"
       ry="0.12276509" /><path
       style="fill:#005c40;fill-opacity:1;stroke:none;stroke-width:0.264583"
       id="path3"
       d="m 37.061563,58.490736 c 0.304855,0.433374 0.590359,0.879382 0.865762,1.331917 0.256545,0.441368 0.465343,0.905992 0.625609,1.390288 0.120833,0.392642 0.14364,0.793628 0.110043,1.199906 -0.05445,0.363945 -0.167425,0.709375 -0.305869,1.048563 -0.148127,0.411824 -0.278347,0.830794 -0.371009,1.258721 -0.02593,-0.0042 -0.07204,0.691602 -0.07961,0.441637 0.05233,-0.303287 0.08643,-0.608492 0.108349,-0.915342 0.02617,-0.548479 0.02418,-1.097894 0.02574,-1.64687 0.008,-0.492493 0.0047,-0.982715 -0.03767,-1.473414 -0.0477,-0.659779 -0.149231,-1.316776 -0.277413,-1.965548 -0.08487,-0.356912 -0.220266,-0.688681 -0.461127,-0.967118 0,0 -7.94e-4,-2.64e-4 -7.94e-4,-2.64e-4 v 0 c 0.240882,0.27841 0.376275,0.610176 0.461164,0.967078 0.128191,0.648766 0.229722,1.305761 0.277413,1.965537 0.04232,0.490696 0.04566,0.980916 0.03768,1.473409 -0.0016,0.548971 5.29e-4,1.098383 -0.02577,1.646856 -0.02193,0.306854 -0.05601,0.612061 -0.108365,0.915348 0.01431,0.252095 0.05149,-0.442564 0.08136,-0.440727 0.09266,-0.427922 0.22287,-0.846887 0.370999,-1.258705 0.138454,-0.339196 0.251431,-0.684633 0.305882,-1.048589 0.0336,-0.406289 0.01082,-0.807289 -0.110027,-1.199944 -0.160263,-0.484304 -0.369062,-0.948933 -0.625604,-1.390308 -0.275397,-0.452536 -0.560904,-0.898539 -0.865746,-1.331918 z" /><path
       style="opacity:0;fill:#005c40;fill-opacity:1;stroke:none;stroke-width:1;stroke-dasharray:none"
       id="path22"
       d="m 50.311422,121.99196 c 0.01349,-0.012 0.02529,-0.0262 0.04044,-0.036 0.04903,-0.0318 0.08916,-0.039 0.143703,-0.06 0.08129,-0.0313 0.163102,-0.0598 0.243282,-0.0939 0.07269,-0.0305 0.148375,-0.0398 0.226253,-0.0402 0,0 -3.237556,-2.24317 -3.237556,-2.24317 v 0 c -0.08272,0.0341 -0.162906,0.0731 -0.242504,0.11395 -0.169386,0.0725 -0.33488,0.15371 -0.503965,0.22692 z" /><path
       style="opacity:0;fill:#005c40;fill-opacity:1;stroke:none;stroke-width:1;stroke-dasharray:none"
       id="path23"
       d="m 51.282361,121.64184 c 0.05399,-0.0324 0.103087,-0.0749 0.161981,-0.0971 0.258185,-0.0975 0.525314,-0.12424 0.797589,-0.15469 0.470315,-0.0526 0.943343,-0.0824 1.415801,-0.10608 0.549032,-0.0243 1.097442,-0.0498 1.641324,-0.13184 0.411033,-0.0803 0.812353,-0.2012 1.220103,-0.29468 0.332163,-0.0998 0.6786,-0.1433 1.00884,-0.24885 0.08044,-0.0281 0.163044,-0.0459 0.24693,-0.059 0,0 -3.241278,-2.209 -3.241278,-2.209 v 0 c -0.0706,0.0333 -0.140615,0.0679 -0.211992,0.0996 -0.288311,0.11252 -0.583205,0.20992 -0.882687,0.28794 -0.408228,0.10143 -0.820476,0.18217 -1.23553,0.25041 -0.471027,0.0826 -0.935985,0.19848 -1.409787,0.26618 -0.44748,0.0662 -0.896155,0.12215 -1.348198,0.14751 -0.341185,0.0191 -0.676407,0.0277 -1.017024,-0.008 -0.115067,-0.0121 -0.227489,-0.0424 -0.34123,-0.0636 z" /><path
       style="opacity:0;fill:#005c40;fill-opacity:1;stroke:none;stroke-width:1;stroke-dasharray:none"
       id="path24"
       d="m 57.241389,120.30485 c 0.04291,-0.0144 0.08481,-0.0322 0.128728,-0.0431 0.17432,-0.0434 0.289793,-0.0521 0.473525,-0.0653 0.276539,-0.0199 0.551957,-0.0182 0.82891,-0.0142 0.327268,0.001 0.65192,0.0372 0.97672,0.0729 0.236156,0.0284 0.474771,2.7e-4 0.711671,-0.007 0.458126,0.0215 0.916755,0.004 1.374997,-0.006 1.172729,-0.0964 2.345092,0.0481 3.506602,0.19834 0.765678,0.10496 1.530554,0.21577 2.291572,0.35073 0.162875,0.0305 0.326234,0.058 0.490041,0.0829 0,0 -3.113141,-2.30587 -3.113141,-2.30587 v 0 c -0.124195,-0.002 -0.248404,-0.003 -0.372536,-0.008 -0.259249,-0.0113 -0.517242,-0.0321 -0.776181,-0.0484 -0.40449,-0.0254 -0.809784,-0.0386 -1.213853,-0.0712 -1.232874,-0.0888 -2.470055,-0.1436 -3.695346,-0.31462 -0.524137,-0.0547 -1.049313,-0.10476 -1.576168,-0.12219 -0.24943,-0.0104 -0.497657,-0.0369 -0.746953,-0.0437 -0.291729,-2.7e-4 -0.583255,0.005 -0.872924,0.0451 -0.528076,0.0434 -1.060566,0.0765 -1.589354,0.0255 z" /><path
       style="opacity:0;fill:#005c40;fill-opacity:1;stroke:#005c40;stroke-width:1.9;stroke-dasharray:none;stroke-opacity:0.0313725"
       id="path25"
       d="m 62.723455,128.74443 c 0.06977,-0.047 0.174943,-0.11985 0.242692,-0.15218 0.06906,-0.0329 0.14279,-0.055 0.214283,-0.0823 0.256797,-0.0979 0.515088,-0.17976 0.778362,-0.25835 0.378518,-0.0943 0.744575,-0.22744 1.104831,-0.37559 0.171966,-0.0917 0.365429,-0.12644 0.544589,-0.19826 0.02061,-0.006 0.04092,-0.0133 0.06182,-0.0184 0.06223,-0.0151 0.05395,2.7e-4 0.113297,-0.0392 0.04585,-0.0305 0.07123,-0.068 0.124206,-0.0841 0.0345,-0.0215 0.06807,-0.0416 0.104151,-0.0606 0.01101,-0.006 0.02437,-0.006 0.03507,-0.0127 0.03803,-0.0225 0.07152,-0.0519 0.108352,-0.0763 0.124955,-0.1011 0.261673,-0.18633 0.395378,-0.27513 0,0 -3.278989,-2.09809 -3.278989,-2.09809 v 0 c -0.125426,0.0851 -0.251643,0.17307 -0.393269,0.22924 -0.100512,0.0426 -0.200975,0.0804 -0.291751,0.14231 -0.0057,0.004 -0.05327,0.0441 -0.06662,0.0492 -0.0048,0.002 -0.01029,-0.003 -0.01537,-0.002 -0.05556,0.009 -0.100996,0.0479 -0.152971,0.0667 -0.170823,0.0707 -0.326755,0.16841 -0.489043,0.25609 -0.310467,0.16104 -0.633322,0.29377 -0.959694,0.419 -0.114829,0.04 -0.393001,0.13829 -0.506867,0.17166 -0.307954,0.0902 -0.621784,0.16116 -0.938769,0.21069 z" /><circle
       id="path26"
       style="fill:#005c40;stroke:#005c40;stroke-width:0.264583"
       cx="82.221176"
       cy="27.010813"
       r="0.063185617" /><path
       style="fill:#005c40;fill-opacity:1;stroke:none;stroke-width:0.8;stroke-dasharray:none"
       d="m 15.682299,145.14987 c -1.2488,-0.1305 -2.81433,-0.67016 -3.692998,-1.27304 -0.181325,-0.12441 -0.4955,-0.3913 -0.698167,-0.59309 -0.3179,-0.31652 -0.397729,-0.42699 -0.581525,-0.80472 -0.257625,-0.52946 -0.341428,-0.86563 -0.341428,-1.36961 0,-0.74156 0.228431,-1.31857 0.760681,-1.92146 0.177541,-0.2011 1.045985,-1.05065 1.929877,-1.88788 1.943458,-1.84086 4.674767,-4.54719 5.986757,-5.932 5.20308,-5.49188 8.545405,-9.12436 9.547776,-10.37665 0.891629,-1.11394 1.332185,-2.02159 1.493903,-3.07781 0.08498,-0.55501 0.0579,-1.88144 -0.04828,-2.36464 -0.211818,-0.96398 -0.665985,-1.65212 -1.647317,-2.49596 -0.211419,-0.18179 -1.288721,-1.01189 -2.394004,-1.84467 -4.120222,-3.10436 -5.722654,-4.46456 -8.305033,-7.04959 -2.604796,-2.60747 -4.14562,-4.542616 -5.769007,-7.245395 C 9.3253775,92.587682 7.5684924,87.730817 6.4540473,81.793095 6.0383671,79.578366 5.6635708,76.36607 5.4978407,73.59766 5.4423249,72.670304 5.4421729,69.658086 5.497595,68.726988 5.6237414,66.607714 5.9820507,63.766104 6.3627613,61.865693 7.3311404,57.031791 8.9801465,52.176137 11.44734,46.893671 c 0.425101,-0.910177 1.545784,-3.151353 1.980202,-3.960069 1.319386,-2.456179 3.331137,-5.815836 6.391034,-10.673125 0.851127,-1.351082 2.071337,-3.295115 2.711578,-4.320074 0.64024,-1.024959 1.446702,-2.311452 1.792137,-2.858873 0.345435,-0.547421 1.1046,-1.757677 1.687033,-2.689458 4.17532,-6.679705 6.690214,-10.654189 8.843902,-13.9767112 0.912302,-1.4074198 1.489539,-2.3162582 2.057879,-3.2400558 0.430156,-0.6991881 0.479991,-0.7330735 0.77621,-0.5277926 0.257342,0.1783386 2.429243,2.4113549 4.406315,4.5303047 5.964011,6.3919979 11.75163,13.3156849 15.524624,18.5719939 1.147901,1.599187 2.618743,3.710095 3.170668,4.550448 1.779217,2.709006 4.242936,6.951753 5.609002,9.659209 2.906597,5.76069 5.319956,12.338873 6.54168,17.830895 0.75784,3.406724 1.209066,6.428609 1.426112,9.550753 0.12519,1.800822 0.08944,6.087907 -0.06957,8.343673 -0.271041,3.844916 -1.059846,7.647401 -2.424948,11.689613 -0.956113,2.83115 -2.128969,5.430345 -3.554757,7.877783 -0.977888,1.678593 -2.677927,4.061525 -3.882768,5.442445 -1.025368,1.17522 -3.037691,3.07843 -4.280324,4.04823 -0.925327,0.72217 -3.087936,2.21879 -4.383416,3.03351 -1.198013,0.75343 -4.972081,2.97692 -6.457688,3.80453 -1.78928,0.99679 -3.935441,2.36195 -5.073804,3.22742 -1.647386,1.25245 -2.408884,1.9231 -4.076332,3.58999 -1.954966,1.95431 -3.817224,3.96514 -6.100594,6.5873 -1.509596,1.73358 -1.821627,2.10859 -3.153108,3.78951 -0.682722,0.86189 -1.491889,1.87203 -1.798147,2.24474 -1.440398,1.75294 -2.491802,3.07252 -2.46748,3.09684 0.0172,0.0172 1.318638,-0.0473 2.253829,-0.11167 1.775998,-0.12228 3.830244,-0.36268 6.353032,-0.74347 1.145644,-0.17293 1.333707,-0.207 3.748288,-0.67905 3.271589,-0.6396 4.340206,-0.86879 7.561439,-1.62178 0.698101,-0.16319 1.860107,-0.43212 2.582235,-0.59764 4.033424,-0.92446 7.381849,-1.86483 11.393104,-3.19963 1.960574,-0.65241 3.094946,-1.11358 3.146043,-1.27898 0.03556,-0.11512 -0.225247,-0.0571 -2.870745,0.63832 -0.663892,0.17452 -1.893203,0.4727 -2.731804,0.66261 -0.8386,0.18991 -2.048852,0.4675 -2.68945,0.61687 -4.244999,0.98979 -8.889214,1.82045 -13.235482,2.3673 -1.447596,0.18214 -3.832724,0.40557 -4.329475,0.40557 h -0.193342 l 0.02733,-0.29403 c 0.01503,-0.16171 0.07519,-0.55719 0.13369,-0.87884 0.468193,-2.57425 1.50081,-5.05547 2.802743,-6.73457 1.295118,-1.6703 2.981664,-3.14146 4.820279,-4.20467 0.639664,-0.3699 2.118297,-1.07807 2.901218,-1.3895 1.401276,-0.55739 3.128864,-1.07624 4.53809,-1.36291 1.223827,-0.24896 3.405,-0.52723 5.351463,-0.68273 1.378445,-0.11012 4.381552,-0.1542 5.950673,-0.0873 2.574088,0.10968 5.997591,0.48672 8.746007,0.9632 4.923955,0.85366 11.017417,2.22923 14.079282,3.17833 0.698937,0.21665 0.90232,0.30206 0.881701,0.37024 -0.01782,0.0589 -0.43365,0.33653 -1.397148,0.93273 -1.194353,0.73905 -2.706221,1.847 -4.776258,3.50021 -1.296383,1.03534 -1.918301,1.58087 -4.170367,3.65817 -2.657897,2.45164 -3.662231,3.2769 -5.633695,4.62923 -2.061241,1.41391 -3.212034,2.08089 -5.084568,2.94689 -2.248993,1.04011 -4.908309,1.79381 -7.494435,2.12407 -2.183468,0.27883 -5.067889,0.31169 -7.369517,0.084 -2.266557,-0.22426 -4.539247,-0.72136 -6.932643,-1.51634 -1.764224,-0.586 -3.071302,-1.15861 -4.443714,-1.94674 -0.270323,-0.15523 -0.515315,-0.28224 -0.544426,-0.28224 -0.02911,0 -0.779953,0.18023 -1.668535,0.40051 -4.77313,1.18328 -7.287977,1.62046 -11.825462,2.05573 -0.723587,0.0694 -1.375694,0.14715 -1.449125,0.17275 -0.09795,0.0341 -0.2673,0.2176 -0.635832,0.68881 -0.841435,1.07586 -1.39822,1.82272 -2.16804,2.90819 -0.902025,1.27187 -1.258643,1.7207 -1.687483,2.12383 -0.989204,0.9299 -2.96195,1.42024 -4.899374,1.21779 z m 1.887976,-1.94523 c 0.974637,-0.13845 2.101552,-0.70217 2.283943,-1.1425 0.08222,-0.1985 0.03277,-0.61538 -0.105321,-0.8879 -0.411403,-0.81187 -1.74476,-1.39879 -3.177174,-1.39855 -1.244759,2.1e-4 -3.023489,0.51883 -3.567622,1.04021 -0.16493,0.15803 -0.18063,0.19126 -0.180252,0.38155 0.0013,0.66172 0.748923,1.34241 1.94719,1.77287 0.469199,0.16856 0.849419,0.24015 1.440679,0.27127 0.591941,0.0311 0.947198,0.0215 1.358557,-0.0369 z m 3.935636,-3.22325 c 0.94103,-1.37829 1.763889,-2.43048 6.901612,-8.82509 3.796511,-4.72529 6.881691,-8.21465 10.207634,-11.54491 2.093692,-2.09642 3.273032,-3.15604 4.659041,-4.18611 1.651531,-1.2274 2.706727,-1.87216 7.561543,-4.62034 1.640098,-0.92841 4.028162,-2.38522 5.294193,-3.22966 1.25861,-0.83948 3.424111,-2.42858 4.108294,-3.01477 2.622261,-2.24668 5.14929,-5.458461 7.266428,-9.235417 1.87345,-3.34222 3.534305,-7.928924 4.338358,-11.981039 0.379736,-1.913719 0.590225,-3.387273 0.802348,-5.616911 0.457106,-4.804684 0.232387,-9.23977 -0.742516,-14.65437 C 70.922024,57.6253 69.221414,52.158985 66.731057,46.448957 64.914604,42.284093 62.921214,38.649435 59.884294,33.964876 57.453829,30.215796 53.788997,25.224256 50.74759,21.520588 49.506235,20.00893 45.163333,14.984852 43.574578,13.222502 41.496496,10.91736 37.878282,7.0248487 37.797088,7.0070194 c -0.05159,-0.011328 -0.84049,1.1664083 -1.764804,2.6346398 -0.307285,0.4881078 -1.001727,1.5840088 -1.543205,2.4353358 -1.400898,2.202532 -3.931644,6.210903 -4.801179,7.604442 -0.406986,0.652247 -1.162886,1.852973 -1.679778,2.668281 -1.370874,2.162317 -1.564783,2.471272 -2.605066,4.15066 -0.519466,0.838603 -1.717165,2.754048 -2.661554,4.256544 -2.950105,4.693536 -3.315852,5.278102 -4.186928,6.69188 -2.361748,3.833178 -3.356927,5.593891 -4.835646,8.555441 -1.909067,3.823439 -3.294959,7.268524 -4.5150922,11.223723 -1.0386112,3.366775 -1.7703562,7.253351 -2.075896,11.025874 -0.075599,0.933423 -0.0884,4.140715 -0.021244,5.322643 0.1899082,3.342334 0.9144438,8.226681 1.677473,11.30843 1.0940022,4.418495 3.0721732,9.040752 5.3066442,12.399677 1.584536,2.381922 3.046129,4.09109 5.63625,6.59096 2.133761,2.05941 3.365103,3.0855 6.813319,5.67763 2.44614,1.83883 2.885329,2.18934 3.463262,2.76397 0.992342,0.98667 1.486718,1.91556 1.711062,3.21495 0.348299,2.01731 -0.07072,3.91387 -1.263507,5.71893 -0.723058,1.09421 -3.093978,3.75099 -8.159163,9.1429 -2.453093,2.61133 -5.029516,5.21673 -7.075626,7.15519 -0.512478,0.48552 -0.94864,0.91156 -0.969249,0.94676 -0.04233,0.0723 -0.08491,0.0782 0.672774,-0.0936 1.175651,-0.26667 2.174467,-0.26072 3.265857,0.0194 1.130572,0.29022 2.126196,0.92208 2.772056,1.75923 0.09867,0.1279 0.200413,0.22606 0.226086,0.21812 0.02567,-0.008 0.170564,-0.19587 0.321977,-0.41764 z m 10.892683,-19.22601 c -0.189622,-0.0401 -0.338068,-0.18893 -0.393397,-0.39441 -0.06557,-0.24352 0.05366,-0.57413 0.737282,-2.04432 0.632939,-1.36119 0.748541,-1.62241 2.013509,-4.54979 1.171051,-2.71005 1.390895,-3.23138 1.94539,-4.61329 1.252712,-3.12201 2.219901,-5.97692 2.848204,-8.40721 0.814849,-3.151855 0.877311,-5.558224 0.17898,-6.895221 -0.343287,-0.657241 -0.938919,-0.897603 -1.867353,-0.753552 -0.618357,0.09594 -1.870924,0.61127 -4.527502,1.862695 -1.867237,0.879593 -3.424321,1.581658 -4.077097,1.838301 -3.050475,1.199314 -5.566364,1.724649 -8.256289,1.723971 -1.693128,-4.27e-4 -3.758067,-0.244359 -4.694071,-0.554512 -0.549885,-0.182209 -0.856895,-0.51086 -0.856895,-0.917298 0,-0.410737 0.228794,-0.647398 1.07943,-1.116542 2.161931,-1.192353 3.239729,-1.845126 4.384177,-2.655296 3.61825,-2.561407 6.735771,-5.37491 9.019439,-8.139871 0.934824,-1.131841 1.93194,-2.531065 2.832655,-3.974981 2.554279,-4.094704 4.351542,-9.314976 4.857877,-14.110036 0.09503,-0.899961 0.128554,-2.66003 0.06576,-3.45278 -0.219667,-2.773313 -1.135487,-5.29648 -2.781675,-7.663764 -0.870514,-1.251834 -1.287956,-1.72872 -4.042223,-4.617845 -1.429968,-1.499985 -1.761551,-1.867596 -2.363957,-2.620816 -1.257596,-1.572438 -2.297583,-3.347067 -3.204847,-5.468735 -0.441897,-1.033391 -1.074246,-3.143323 -1.226356,-4.091934 -0.08927,-0.5567 -0.09421,-1.128558 -0.01114,-1.289191 0.125733,-0.24314 0.402173,-0.400151 0.704525,-0.400151 0.362598,0 0.508061,0.117427 1.07555,0.86825 0.577923,0.764629 0.956629,1.202204 1.680806,1.94208 1.5381,1.571444 3.09145,2.801787 4.951821,3.922126 1.654853,0.996574 4.371084,2.380568 6.738499,3.433448 1.41382,0.62878 4.708522,1.98967 5.069968,2.094171 0.0846,0.02446 0.07203,-0.0182 -0.133153,-0.451729 -0.270948,-0.572489 -0.449254,-1.115857 -0.581629,-1.772457 -0.140323,-0.696028 -0.140523,-1.840394 -4.41e-4,-2.535052 0.337998,-1.676112 1.186006,-3.187528 2.368422,-4.22127 0.951736,-0.832068 2.23245,-1.471588 3.527459,-1.761426 0.400955,-0.08974 0.543492,-0.09913 1.481306,-0.0976 0.984663,0.0016 1.063451,0.0078 1.542574,0.120226 0.66564,0.15626 1.118109,0.316805 1.761003,0.62484 0.812552,0.389324 1.203245,0.656742 1.813535,1.241308 1.050396,1.006125 1.733107,2.190801 2.121583,3.681484 0.20203,0.775244 0.224974,2.180284 0.04876,2.986176 -0.279294,1.277336 -0.892,2.534672 -1.705456,3.499773 -0.713523,0.846539 -1.846514,1.662641 -2.946601,2.12246 -0.252283,0.105451 -0.388692,0.184913 -0.381182,0.222052 0.0064,0.03181 0.307112,0.219602 0.668176,0.417317 1.845338,1.010489 3.358191,2.01405 5.233588,3.471734 1.603986,1.246726 2.618576,2.15588 4.276086,3.831716 1.309382,1.323859 1.653183,1.707346 2.462457,2.746707 1.527208,1.961412 2.609893,3.665651 3.592063,5.654215 0.829701,1.679865 1.219624,2.692086 1.396776,3.625958 0.126246,0.665514 0.05812,0.998569 -0.257615,1.259344 -0.304395,0.251412 -0.637956,0.269398 -0.937454,0.05055 -0.08724,-0.06375 -0.530531,-0.476146 -0.985088,-0.91644 -1.954141,-1.892819 -2.804899,-2.627647 -4.051643,-3.499537 -1.170603,-0.818643 -2.752946,-1.67506 -3.698482,-2.001744 -1.063994,-0.367611 -2.215436,-0.365464 -2.95103,0.0055 -0.120575,0.06081 -0.354808,0.246332 -0.520519,0.412279 -0.235928,0.236265 -0.350592,0.3982 -0.528543,0.746435 -0.591178,1.156887 -0.870629,2.380124 -1.359448,5.950691 -0.256195,1.871364 -0.419616,2.768233 -1.186239,6.510195 -0.741887,3.621219 -1.061822,4.982698 -1.83466,7.807376 -1.067701,3.902387 -1.900751,6.437488 -3.089058,9.400484 -1.619733,4.038738 -3.729455,8.147378 -5.697963,11.096658 -1.789451,2.68101 -3.12751,4.37015 -4.876799,6.15636 -1.436202,1.46652 -2.781229,2.5777 -4.588554,3.79078 -1.078453,0.72386 -1.539816,0.93956 -1.863301,0.87113 z m 2.033428,-2.23327 c 3.490142,-2.62435 5.641367,-4.98279 8.484621,-9.30187 2.375688,-3.60882 4.667444,-8.26326 6.372478,-12.94219 0.733524,-2.012923 1.849912,-5.641021 2.515271,-8.174258 0.509286,-1.939018 1.345803,-5.696965 1.890296,-8.491911 0.460712,-2.364893 0.647758,-3.485375 0.929738,-5.569508 0.498063,-3.681214 1.037675,-5.280556 2.15858,-6.397748 0.782668,-0.780075 1.629078,-1.075801 2.841096,-0.992646 1.327514,0.09108 3.025582,0.793934 4.913011,2.033567 1.251542,0.821992 2.291124,1.667263 3.72331,3.027375 1.144654,1.08705 1.378165,1.291087 1.392994,1.217169 0.03585,-0.178718 -0.772387,-2.189762 -1.348789,-3.356029 -0.951822,-1.925875 -1.716137,-3.113455 -3.196978,-4.967407 -0.832316,-1.042028 -1.531445,-1.816777 -2.666993,-2.955467 -2.296336,-2.302692 -4.023643,-3.71838 -6.713081,-5.501994 -1.45317,-0.963731 -2.027656,-1.304456 -3.513868,-2.08406 -0.649464,-0.340681 -1.229961,-0.664965 -1.289994,-0.72063 -0.124981,-0.11589 -0.139075,-0.247978 -0.04134,-0.387507 0.08451,-0.120658 0.144209,-0.143316 0.927504,-0.352034 1.822556,-0.485642 3.075907,-1.240511 4.030917,-2.427743 0.981652,-1.220353 1.425769,-2.473719 1.426124,-4.024738 3.87e-4,-1.695226 -0.540512,-3.060262 -1.682428,-4.245842 -0.955668,-0.992212 -2.030411,-1.589343 -3.389024,-1.882954 -0.621261,-0.134262 -1.888022,-0.133895 -2.511246,7.28e-4 -0.888319,0.191885 -1.835141,0.618199 -2.535641,1.141692 -0.804795,0.601435 -1.59186,1.513263 -1.964357,2.275741 -0.425326,0.870616 -0.608177,1.662065 -0.606676,2.625928 0.0021,1.332844 0.230206,2.096596 1.224998,4.10115 0.579225,1.167165 0.57881,1.293871 -0.0037,1.130419 -1.40381,-0.393911 -4.436274,-1.545342 -6.589149,-2.501909 -3.298592,-1.465633 -5.342813,-2.493703 -7.263633,-3.652992 -2.10573,-1.270889 -4.562592,-3.36317 -6.123361,-5.214697 -0.546055,-0.647781 -0.569021,-0.669122 -0.581728,-0.540581 -0.01655,0.167425 0.178791,0.975819 0.436874,1.807938 0.728017,2.347293 2.10919,4.930094 3.669131,6.861294 0.583622,0.722521 1.18567,1.381416 2.979868,3.261233 1.865787,1.954822 2.015174,2.117936 2.554129,2.78882 1.047263,1.303619 1.944374,2.781256 2.615588,4.308147 0.370643,0.843148 0.808376,2.255778 1.009715,3.258506 0.225525,1.123181 0.252897,1.470035 0.254011,3.218879 8.5e-4,1.334185 -0.01377,1.793045 -0.0722,2.265921 -0.679709,5.50088 -2.504481,10.604984 -5.450584,15.245932 -2.11171,3.326541 -5.054613,6.509766 -8.91508,9.643098 -1.929519,1.566086 -4.890033,3.569826 -6.60368,4.469512 -0.347506,0.182445 -0.639706,0.355349 -0.649334,0.384231 -0.02746,0.08238 0.15495,0.131097 1.066471,0.2848 1.159971,0.195597 1.61357,0.234124 2.756459,0.234124 3.439931,0 6.633746,-0.866719 11.017682,-2.989914 1.912993,-0.926487 2.791046,-1.324596 3.869036,-1.754222 1.118867,-0.445917 1.982562,-0.678204 2.514995,-0.676398 0.636,0.0022 1.425445,0.336299 1.886534,0.798496 0.908826,0.911013 1.252497,2.844379 0.937014,5.2713 -0.374511,2.880999 -1.520908,6.674179 -3.49669,11.569769 -1.457195,3.61064 -2.754309,6.6706 -3.536878,8.34368 -0.215997,0.46178 -0.422652,0.95129 -0.422652,1.00113 0,0.0931 0.152883,0.001 0.770643,-0.46333 z m 23.268271,19.28609 c 2.229683,-0.19008 3.90771,-0.53338 6.053279,-1.23842 3.266268,-1.0733 6.054088,-2.66341 9.444841,-5.38711 1.259146,-1.01144 1.780172,-1.47045 3.900037,-3.43584 1.724463,-1.5988 4.030575,-3.47405 6.29553,-5.11931 0.640317,-0.46512 0.753046,-0.5728 0.678109,-0.64774 -0.17625,-0.17625 -8.008409,-1.86758 -11.318388,-2.44416 -4.160818,-0.72481 -6.466525,-0.95256 -10.207205,-1.00826 -3.368151,-0.0502 -6.271933,0.16945 -8.85189,0.66946 -2.492046,0.48297 -5.191532,1.4449 -7.226286,2.57501 -1.365728,0.75852 -2.371996,1.50733 -3.387157,2.52053 -1.396425,1.39373 -2.353651,2.88288 -2.98373,4.64178 -0.219663,0.6132 -0.520405,1.82289 -0.466573,1.87672 0.0519,0.0519 0.431039,0.0123 2.797703,-0.29215 5.925521,-0.7623 8.830725,-1.30974 16.983771,-3.20037 0.407653,-0.0945 1.389196,-0.33111 2.181208,-0.52572 3.017148,-0.74139 3.446255,-0.80818 3.812678,-0.59344 0.277508,0.16263 0.427647,0.45459 0.375825,0.73083 -0.0476,0.25374 -0.962206,1.17383 -1.682248,1.69235 -0.847568,0.61035 -2.178367,1.30029 -3.578228,1.85509 -2.130288,0.84429 -6.451286,2.17727 -9.745556,3.00639 -1.215896,0.30603 -6.445802,1.54752 -7.150963,1.69751 -0.192179,0.0409 -0.349417,0.0902 -0.349417,0.10958 0,0.11374 0.70475,0.41228 2.049596,0.86826 2.907158,0.98567 5.324933,1.51695 7.585836,1.66692 0.372711,0.0247 0.772952,0.052 0.889424,0.0607 0.489457,0.0364 3.18949,-0.018 3.899804,-0.0786 z"
       id="path1" /></g></svg>
