<?xml version="1.0" encoding="UTF-8" standalone="no"?>
<!-- Created with Inkscape (http://www.inkscape.org/) -->

<svg
   width="47.701817mm"
   height="56.310711mm"
   viewBox="0 0 47.701817 56.310711"
   version="1.1"
   id="svg1"
   xml:space="preserve"
   xmlns="http://www.w3.org/2000/svg"
   xmlns:svg="http://www.w3.org/2000/svg"><defs
     id="defs1" /><g
     id="layer1"
     transform="translate(-45.081214,-32.138478)"><path
       id="path1"
       style="fill:#005c40;fill-opacity:1"
       d="m 58.655334,36.909375 c -0.815735,0 -1.467188,0.203766 -2.165242,0.677478 -0.926312,0.628612 -7.782986,6.754188 -10.410734,9.300724 -1.206902,1.169602 -1.313493,1.738955 -0.3514,1.880506 0.432776,0.06367 1.901704,-1.120973 5.932455,-4.784204 2.946463,-2.677808 5.617183,-5.007966 5.935038,-5.177979 1.513767,-0.80968 2.710011,-0.153326 7.236251,3.969784 6.742144,6.141656 7.943619,7.098274 8.913667,7.098274 1.217837,0 0.642636,-0.949965 -1.778702,-2.938838 -1.309571,-1.075674 -2.381134,-2.13861 -2.38125,-2.36213 -3.53e-4,-0.677652 2.100076,-2.107365 3.095935,-2.107365 0.757314,0 1.333679,0.417709 4.052982,2.936772 1.176482,1.08985 2.208526,2.096261 2.755388,2.676839 0.06415,-0.02517 0.130959,-0.04932 0.200504,-0.07183 0.321197,-0.103974 0.646805,-0.193781 0.972034,-0.284221 0.207123,-0.05737 0.416471,-0.104966 0.627352,-0.145211 -0.04675,-0.06451 -0.09136,-0.130332 -0.133842,-0.19792 -0.06822,-0.08355 -0.133978,-0.169032 -0.19482,-0.258382 -0.08034,-0.114838 -0.162735,-0.229239 -0.251665,-0.337448 -0.04506,-0.05484 -0.0767,-0.109067 -0.09663,-0.160196 -0.39665,-0.290655 -1.646225,-1.394748 -3.051494,-2.702678 -1.641366,-1.527673 -3.244503,-2.838037 -3.562056,-2.911967 -1.816731,-0.422941 -2.56326,-0.256121 -4.149101,0.927075 -0.780168,0.582084 -1.634436,1.058334 -1.898592,1.058334 -0.264156,0 -1.32101,-0.771477 -2.348177,-1.714108 -3.960111,-3.634191 -5.131849,-4.371309 -6.947897,-4.371309 z M 86.696,39.161951 c -0.03393,0.0155 -0.06547,0.03965 -0.09508,0.06873 0.03224,-0.0209 0.06393,-0.04366 0.09508,-0.06873 z m -0.481107,0.686263 c -0.01139,0.02681 -0.02271,0.05403 -0.03359,0.08113 0.01836,-0.02257 0.03671,-0.0452 0.05478,-0.06718 -0.0071,-0.0047 -0.01409,-0.0093 -0.02119,-0.01395 z M 56.56709,53.363151 c -0.01549,-4.6e-4 -0.03057,2.92e-4 -0.04496,0.0026 -0.366682,0.05231 -1.464168,1.277504 -3.152262,3.519682 -5.026545,6.676408 -7.332369,9.916905 -7.332369,10.304797 0,0.607426 0.883,0.939994 2.495972,0.939994 1.007242,0 1.469543,0.104515 1.462443,0.330729 -0.0057,0.181901 -0.902083,1.342761 -1.99161,2.579688 -1.971015,2.237669 -2.369036,3.200222 -1.399915,3.384806 0.511577,0.09744 6.39794,-6.307399 6.529318,-7.104476 0.112946,-0.685254 -0.874263,-1.04283 -2.879928,-1.04283 -0.863652,0 -1.567745,-0.0893 -1.564245,-0.198438 0.01078,-0.336736 7.516068,-10.227366 7.830529,-10.319266 0.285353,-0.08339 7.773686,9.774952 7.773686,10.234 0,0.124228 -0.899122,0.271115 -1.997811,0.326595 -1.861767,0.09401 -2.479512,0.355204 -2.495972,1.055233 -0.0022,0.09477 1.958035,2.356963 4.356324,5.027084 2.398288,2.670122 4.362825,5.003829 4.365625,5.185729 0.0037,0.238459 -0.608105,0.33073 -2.193148,0.33073 -1.450595,0 -2.368319,0.124125 -2.69751,0.364835 -0.475966,0.348035 -0.477639,0.396931 -0.04289,1.060401 0.250614,0.382486 2.192415,2.605592 4.315499,4.940267 2.470956,2.717219 4.015721,4.215196 4.292244,4.162536 0.760045,-0.144752 0.643824,-1.158543 -0.249597,-2.176094 -0.464158,-0.528646 -0.767521,-1.038054 -0.673861,-1.131714 0.09366,-0.09366 1.329829,-0.253011 2.747119,-0.353984 4.875871,-0.347376 8.718593,-1.737624 10.939384,-3.958414 2.013556,-2.013556 2.313845,-3.959919 1.012858,-6.563424 -1.014513,-2.030219 -2.745453,-3.622884 -7.683768,-7.07037 -4.121279,-2.877106 -6.205492,-4.631436 -6.461621,-5.438427 -0.584621,-1.841977 3.385129,-3.543361 9.824723,-4.211113 0.696759,-0.07225 1.24978,-0.118035 1.687235,-0.128674 0.02505,-0.03054 0.05406,-0.06085 0.08785,-0.09095 0.05199,-0.04632 0.107301,-0.0878 0.164331,-0.12764 0.05506,-0.04224 0.113542,-0.08026 0.168982,-0.121957 0.02191,-0.01752 0.04348,-0.03587 0.0646,-0.05426 0.01769,-0.02066 0.03541,-0.04089 0.05323,-0.0615 0.0543,-0.07018 0.111401,-0.137896 0.167431,-0.206706 0.03516,-0.0442 0.07441,-0.08501 0.113172,-0.12609 -0.06464,-0.281279 -0.133495,-0.562103 -0.164848,-0.849561 -0.0092,-0.05917 -0.01929,-0.118207 -0.02946,-0.17725 -0.0074,-0.0044 -0.01418,-0.0093 -0.02067,-0.01447 -0.417218,0.08951 -1.027962,0.17087 -1.811776,0.236161 -4.848147,0.403849 -9.084861,1.62597 -10.81226,3.119189 -0.801363,0.692724 -1.015313,1.083027 -1.121379,2.046387 -0.112014,1.017375 -0.01641,1.346837 0.656808,2.270663 0.771797,1.059098 3.655537,3.340544 7.848616,6.20944 4.554251,3.11601 6.774204,5.942729 6.368087,8.107515 -0.582016,3.102416 -6.259256,5.636865 -12.626619,5.636865 -1.591637,0 -3.110815,-0.11569 -3.375505,-0.257348 -0.26469,-0.141658 -0.990722,-0.866492 -1.613855,-1.610755 -1.391729,-1.662269 -1.233553,-1.826229 1.770951,-1.831929 1.720395,-0.0032 2.187044,-0.08868 2.315621,-0.423747 0.08856,-0.230788 0.07165,-0.576603 -0.03772,-0.768429 -0.109372,-0.191825 -2.074189,-2.448013 -4.366142,-5.013647 -2.291954,-2.565634 -4.167188,-4.779663 -4.167188,-4.920113 0,-0.140451 0.765181,-0.255282 1.700672,-0.255282 1.865441,0 2.656959,-0.437129 2.322855,-1.282609 -0.102911,-0.260425 -2.374469,-3.41819 -5.04827,-7.017659 -3.853779,-5.187955 -4.898954,-6.452532 -5.379,-6.466789 z m 32.623848,3.026172 c -0.01227,0.0028 -0.03396,0.0069 -0.03979,0.0088 l -5.16e-4,5.17e-4 h -5.17e-4 v 5.16e-4 c 4.86e-4,2.6e-5 0.0017,3.9e-5 0.0026,0 0.01171,-4.86e-4 0.02447,-0.0018 0.03772,-0.0036 1.62e-4,-0.0021 3.51e-4,-0.0041 5.16e-4,-0.0062 z" /><path
       style="fill:#005c40;fill-opacity:1;stroke:#005c40;stroke-width:0.999987;stroke-opacity:1"
       d="m 90.340605,59.893603 c -0.16248,-0.216759 -1.08866,-1.621161 -2.05818,-3.120897 -1.406211,-2.17518 -1.738012,-2.7661 -1.640215,-2.921148 0.308654,-0.489309 0.544105,-0.225019 2.581405,2.897597 1.56892,2.404702 1.99111,3.133486 1.89962,3.278834 -0.20247,0.321521 -0.47611,0.274528 -0.78263,-0.134456 z m -9.30119,0.10149 c -0.08665,-0.226053 0.01548,-0.400179 2.122487,-3.645135 1.603046,-2.467828 1.81936,-2.750131 2.086537,-2.723006 0.196087,0.01987 0.308209,0.111868 0.327692,0.268723 0.0176,0.142106 -0.760607,1.442765 -1.926237,3.219222 -1.591553,2.425552 -2.010636,2.987513 -2.249959,3.017018 -0.174033,0.02151 -0.32121,-0.0344 -0.36052,-0.136872 z m 4.863192,-7.133875 c -0.0333,-0.08679 -0.0466,-2.760056 -0.02945,-5.940524 l 0.03099,-5.782683 0.269385,-0.03825 0.269391,-0.03831 -0.03088,5.938538 c -0.02888,5.550737 -0.04456,5.941171 -0.239937,5.978778 -0.114994,0.02211 -0.236232,-0.03079 -0.269501,-0.117683 z m -5.657092,-4.682901 c -0.07907,-0.09516 -0.125868,-0.246235 -0.104109,-0.335602 0.02183,-0.08933 0.920145,-1.513773 1.996308,-3.165337 1.954124,-2.998961 2.168455,-3.240943 2.508166,-2.831624 0.181527,0.218743 0.268671,0.06453 -1.970818,3.486057 -2.075322,3.17065 -2.118573,3.221322 -2.429636,2.846506 z m 11.48594,-0.395057 c -0.0739,-0.04814 -0.90735,-1.267977 -1.85224,-2.710666 -2.37851,-3.631587 -2.29756,-3.490576 -2.12414,-3.699507 0.34654,-0.417579 0.5541,-0.183192 2.54354,2.8724 1.09144,1.676338 1.98442,3.114255 1.98442,3.195374 0,0.14993 -0.23229,0.435148 -0.35171,0.431817 -0.0359,-8.63e-4 -0.12607,-0.04122 -0.19987,-0.08936 z m -6.395448,-7.781986 c -1.726769,-0.431684 -2.869613,-1.885208 -2.869613,-3.649694 0,-2.775999 2.845992,-4.549372 5.341561,-3.328396 2.72186,1.331677 2.75686,5.237955 0.059,6.594592 -0.84754,0.426208 -1.789348,0.56891 -2.53101,0.383498 z m 2.005598,-0.994362 c 2.23173,-1.039217 2.31465,-4.171256 0.13906,-5.255375 -0.700838,-0.34923 -1.746642,-0.410375 -2.393822,-0.140015 -0.561972,0.234811 -1.24181,0.867619 -1.540983,1.434395 -0.398662,0.755253 -0.369046,1.980061 0.06576,2.719739 0.797254,1.356261 2.363544,1.877474 3.729925,1.241209 z"
       id="path26" /></g></svg>
